<svg width="1456" height="1455" xmlns="http://www.w3.org/2000/svg" xmlns:xlink="http://www.w3.org/1999/xlink" xml:space="preserve" overflow="hidden"><defs><clipPath id="clip0"><rect x="4702" y="3261" width="79" height="78"/></clipPath><clipPath id="clip1"><rect x="4702" y="3261" width="79" height="78"/></clipPath><clipPath id="clip2"><rect x="4702" y="3261" width="79" height="78"/></clipPath></defs><g transform="translate(-4053 -2573)"><g><g><g><path d="M92.625 432.25C92.625 432.25 61.75 432.25 61.75 401.375 61.75 370.5 92.625 277.875 247 277.875 401.375 277.875 432.25 370.5 432.25 401.375 432.25 432.25 401.375 432.25 401.375 432.25L92.625 432.25ZM247 247C298.155 247 339.625 205.53 339.625 154.375 339.625 103.22 298.155 61.75 247 61.75 195.845 61.75 154.375 103.22 154.375 154.375 154.375 205.53 195.845 247 247 247Z" transform="matrix(1 0 0 1 4157 3053)"/></g></g></g><path d="M4651 3241.98C4651 3230.95 4659.95 3222 4670.98 3222L5333.02 3222C5344.05 3222 5353 3230.95 5353 3241.98L5353 3358.02C5353 3369.05 5344.05 3378 5333.02 3378L4670.98 3378C4659.95 3378 4651 3369.05 4651 3358.02Z" stroke="#000000" stroke-width="13.75" stroke-miterlimit="8" fill="none" fill-rule="evenodd"/><g clip-path="url(#clip0)"><g clip-path="url(#clip1)"><g clip-path="url(#clip2)"><path d="M0 38.9998C-8.6597e-15 17.4608 17.4608-4.32985e-15 38.9998-4.32985e-15 60.5388-1.29896e-14 77.9997 17.4608 77.9997 38.9998 77.9997 60.5388 60.5388 77.9997 38.9998 77.9997 17.4608 77.9997-4.32985e-15 60.5388-4.32985e-15 38.9998ZM36.5623 5.25035C33.2961 6.24485 30.0542 9.24784 27.3633 14.2934 26.6661 15.5999 26.0178 17.0234 25.4376 18.5444 28.8745 19.3098 32.6136 19.7973 36.5623 19.9435L36.5623 5.25035ZM20.7138 17.2526C21.406 15.3806 22.1958 13.6256 23.0587 11.9973 23.9016 10.4035 24.875 8.88216 25.969 7.44897 21.8188 9.16886 18.0484 11.6902 14.8736 14.8687 16.6383 15.7657 18.5932 16.5701 20.7138 17.2574ZM17.1063 36.5623C17.2818 31.3461 18.0228 26.3883 19.2318 21.8984 16.593 21.0545 14.0387 19.9659 11.6025 18.6468 7.71975 23.8599 5.41523 30.078 4.96273 36.5623L17.1014 36.5623ZM23.9313 23.2C22.782 27.5669 22.1279 32.0492 21.9813 36.5623L36.5623 36.5623 36.5623 24.8185C32.1261 24.6723 27.8703 24.1116 23.9313 23.2ZM41.4373 24.8136 41.4373 36.5623 56.0135 36.5623C55.8686 32.0494 55.2161 27.567 54.0684 23.2 50.1294 24.1116 45.8736 24.6674 41.4373 24.8185ZM21.9862 41.4373C22.1568 46.2489 22.8442 50.768 23.9313 54.7996 28.0802 53.8581 32.31 53.3177 36.5623 53.186L36.5623 41.4373 21.9862 41.4373ZM41.4373 41.4373 41.4373 53.1812C45.8736 53.3274 50.1294 53.888 54.0684 54.7996 55.1555 50.768 55.8429 46.2489 56.0184 41.4373L41.4373 41.4373ZM25.4376 59.4552C26.0226 60.9762 26.6661 62.3997 27.3633 63.7062 30.0542 68.7518 33.301 71.7499 36.5623 72.7493L36.5623 58.061C32.6136 58.2073 28.8745 58.6948 25.4376 59.4601ZM25.9739 70.5507C24.8781 69.1177 23.9031 67.5964 23.0587 66.0023 22.1608 64.3031 21.3774 62.5459 20.7138 60.7422 18.7084 61.3867 16.7558 62.1854 14.8736 63.131 18.0484 66.3095 21.8188 68.8308 25.969 70.5507ZM19.2318 56.1013C17.9661 51.3102 17.2514 46.3904 17.1014 41.4373L4.96273 41.4373C5.41496 47.9217 7.71951 54.1399 11.6025 59.3529 13.8937 58.0951 16.4531 57.0031 19.2318 56.1013ZM52.0307 70.5507C56.1788 68.8318 59.9475 66.3122 63.1212 63.1359 61.2406 62.1904 59.2897 61.3918 57.2859 60.7471 56.6221 62.5491 55.8387 64.3047 54.941 66.0023 54.0983 67.5963 53.1249 69.1177 52.0307 70.5507ZM41.4373 58.0561 41.4373 72.7493C44.7036 71.7548 47.9454 68.7518 50.6364 63.7062 51.3335 62.3997 51.9819 60.9762 52.562 59.4552 48.9039 58.6531 45.1802 58.1865 41.4373 58.061ZM58.7679 56.1013C61.5466 57.0031 64.106 58.0951 66.3972 59.3529 70.2802 54.1399 72.5847 47.9217 73.0369 41.4373L60.8982 41.4373C60.7483 46.3904 60.0335 51.3102 58.7679 56.1013ZM73.0369 36.5623C72.5847 30.0779 70.2802 23.8597 66.3972 18.6468 64.106 19.9045 61.5466 20.9965 58.7679 21.8984 59.9769 26.3834 60.7179 31.3461 60.8982 36.5623L73.0369 36.5623ZM54.941 11.9973C55.8039 13.6256 56.5936 15.3806 57.2908 17.2526 59.2929 16.6078 61.2422 15.8092 63.1212 14.8638 59.947 11.6893 56.1783 9.1714 52.0307 7.45384 53.0934 8.83346 54.0684 10.3642 54.941 11.9973ZM52.562 18.5444C52.0082 17.0892 51.3651 15.6695 50.6364 14.2934 47.9454 9.24784 44.7036 6.24972 41.4373 5.25035L41.4373 19.9387C45.3861 19.7924 49.1252 19.3049 52.562 18.5395Z" transform="matrix(1 0 0 1 4703 3261)"/></g></g></g><text font-family="Arial,Arial_MSFontService,sans-serif" font-weight="400" font-size="73" transform="matrix(1 0 0 1 4801.05 3327)">https://</text></g></svg>