<svg width="1455" height="1455" xmlns="http://www.w3.org/2000/svg" xmlns:xlink="http://www.w3.org/1999/xlink" xml:space="preserve" overflow="hidden"><g transform="translate(-831 -1949)"><g><g><g><path d="M87.5625 408.625C87.5625 408.625 58.375 408.625 58.375 379.438 58.375 350.25 87.5625 262.688 233.5 262.688 379.438 262.688 408.625 350.25 408.625 379.438 408.625 408.625 379.438 408.625 379.438 408.625L87.5625 408.625ZM233.5 233.5C281.86 233.5 321.063 194.297 321.063 145.938 321.063 97.5781 281.86 58.375 233.5 58.375 185.141 58.375 145.938 97.5781 145.938 145.938 145.938 194.297 185.141 233.5 233.5 233.5Z" transform="matrix(1.00214 0 0 1 1065 2417)"/></g></g></g><g><g><g><path d="M87.5625 408.625C87.5625 408.625 58.375 408.625 58.375 379.437 58.375 350.25 87.5625 262.687 233.5 262.687 379.437 262.687 408.625 350.25 408.625 379.437 408.625 408.625 379.437 408.625 379.437 408.625L87.5625 408.625ZM233.5 233.5C281.859 233.5 321.062 194.297 321.062 145.937 321.062 97.578 281.859 58.375 233.5 58.375 185.141 58.375 145.937 97.578 145.937 145.937 145.937 194.297 185.141 233.5 233.5 233.5Z" transform="matrix(1 0 0 1 1585 2417)"/></g></g></g><g><g><g><path d="M87.75 409.5C87.75 409.5 58.5 409.5 58.5 380.25 58.5 351 87.75 263.25 234 263.25 380.25 263.25 409.5 351 409.5 380.25 409.5 409.5 380.25 409.5 380.25 409.5L87.75 409.5ZM234 234C282.463 234 321.75 194.713 321.75 146.25 321.75 97.787 282.463 58.5 234 58.5 185.537 58.5 146.25 97.787 146.25 146.25 146.25 194.713 185.537 234 234 234Z" transform="matrix(1 0 0 1 1065 2884)"/></g></g></g><g><g><g><path d="M87.5625 408.625C87.5625 408.625 58.375 408.625 58.375 379.437 58.375 350.25 87.5625 262.687 233.5 262.687 379.437 262.687 408.625 350.25 408.625 379.437 408.625 408.625 379.437 408.625 379.437 408.625L87.5625 408.625ZM233.5 233.5C281.859 233.5 321.062 194.297 321.062 145.937 321.062 97.578 281.859 58.375 233.5 58.375 185.141 58.375 145.937 97.578 145.937 145.937 145.937 194.297 185.141 233.5 233.5 233.5Z" transform="matrix(1 0 0 1.00214 1585 2884)"/></g></g></g><path d="M987 2108.97C987 2092.42 1000.42 2079 1016.97 2079L2100.03 2079C2116.58 2079 2130 2092.42 2130 2108.97L2130 2283.03C2130 2299.58 2116.58 2313 2100.03 2313L1016.97 2313C1000.42 2313 987 2299.58 987 2283.03Z" stroke="#000000" stroke-width="27.5" stroke-miterlimit="8" fill="none" fill-rule="evenodd"/><g><g><g><path d="M1104 2157C1106.69 2157 1108.87 2159.18 1108.87 2161.88L1108.87 2187.56 1131.11 2174.72C1133.44 2173.35 1136.42 2174.13 1137.79 2176.46 1139.15 2178.78 1138.37 2181.77 1136.05 2183.13 1136.03 2183.14 1136.01 2183.15 1135.99 2183.16L1113.75 2196 1135.99 2208.84C1138.33 2210.17 1139.15 2213.15 1137.82 2215.49 1136.49 2217.83 1133.51 2218.65 1131.17 2217.32 1131.15 2217.31 1131.13 2217.3 1131.11 2217.28L1108.87 2204.44 1108.87 2230.12C1108.87 2232.82 1106.69 2235 1104 2235 1101.31 2235 1099.12 2232.82 1099.12 2230.12L1099.12 2204.44 1076.89 2217.28C1074.56 2218.65 1071.58 2217.87 1070.21 2215.54 1068.85 2213.22 1069.63 2210.23 1071.95 2208.87 1071.97 2208.86 1071.99 2208.85 1072.01 2208.84L1094.25 2196 1072.01 2183.16C1069.69 2181.8 1068.91 2178.81 1070.27 2176.49 1071.62 2174.19 1074.57 2173.4 1076.89 2174.72L1099.12 2187.56 1099.12 2161.88C1099.12 2159.18 1101.31 2157 1104 2157Z"/></g></g></g><g><g><g><path d="M1234 2157C1236.69 2157 1238.87 2159.18 1238.87 2161.88L1238.87 2187.56 1261.11 2174.72C1263.44 2173.35 1266.42 2174.13 1267.79 2176.46 1269.15 2178.78 1268.37 2181.77 1266.05 2183.13 1266.03 2183.14 1266.01 2183.15 1265.99 2183.16L1243.75 2196 1265.99 2208.84C1268.33 2210.17 1269.15 2213.15 1267.82 2215.49 1266.49 2217.83 1263.51 2218.65 1261.17 2217.32 1261.15 2217.31 1261.13 2217.3 1261.11 2217.28L1238.87 2204.44 1238.87 2230.12C1238.87 2232.82 1236.69 2235 1234 2235 1231.31 2235 1229.12 2232.82 1229.12 2230.12L1229.12 2204.44 1206.89 2217.28C1204.56 2218.65 1201.58 2217.87 1200.21 2215.54 1198.85 2213.22 1199.63 2210.23 1201.95 2208.87 1201.97 2208.86 1201.99 2208.85 1202.01 2208.84L1224.25 2196 1202.01 2183.16C1199.69 2181.8 1198.91 2178.81 1200.27 2176.49 1201.62 2174.19 1204.57 2173.4 1206.89 2174.72L1229.12 2187.56 1229.12 2161.88C1229.12 2159.18 1231.31 2157 1234 2157Z"/></g></g></g><g><g><g><path d="M38.9998 0C41.6922-1.08246e-15 43.8748 2.1826 43.8748 4.87498L43.8748 30.5564 66.1145 17.7157C68.4371 16.354 71.4239 17.1331 72.7855 19.4557 74.1472 21.7784 73.3681 24.7651 71.0455 26.1268 71.0269 26.1377 71.0082 26.1485 70.9895 26.1591L48.7498 38.9998 70.9895 51.8405C73.33 53.1713 74.1486 56.1474 72.8179 58.4879 71.4871 60.8284 68.511 61.6471 66.1705 60.3163 66.1517 60.3057 66.1331 60.2949 66.1145 60.284L43.8748 47.4433 43.8748 73.1247C43.8748 75.8171 41.6922 77.9997 38.9998 77.9997 36.3075 77.9997 34.1249 75.8171 34.1249 73.1247L34.1249 47.4433 11.8852 60.284C9.56253 61.6457 6.5758 60.8666 5.21414 58.5439 3.85249 56.2213 4.63154 53.2345 6.95421 51.8729 6.97281 51.862 6.99148 51.8512 7.01022 51.8405L29.2499 38.9998 7.01022 26.1591C4.68755 24.7975 3.9085 21.8108 5.27015 19.4881 6.61905 17.1872 9.5666 16.3974 11.8852 17.7157L34.1249 30.5564 34.1249 4.87498C34.1249 2.1826 36.3075 -5.41231e-16 38.9998 -5.41231e-16Z" transform="matrix(1 0 0 1 1325 2157)"/></g></g></g><g><g><g><path d="M1494 2157C1496.69 2157 1498.88 2159.18 1498.88 2161.88L1498.88 2187.56 1521.11 2174.72C1523.44 2173.35 1526.42 2174.13 1527.79 2176.46 1529.15 2178.78 1528.37 2181.77 1526.05 2183.13 1526.03 2183.14 1526.01 2183.15 1525.99 2183.16L1503.75 2196 1525.99 2208.84C1528.33 2210.17 1529.15 2213.15 1527.82 2215.49 1526.49 2217.83 1523.51 2218.65 1521.17 2217.32 1521.15 2217.31 1521.13 2217.3 1521.11 2217.28L1498.88 2204.44 1498.88 2230.12C1498.88 2232.82 1496.69 2235 1494 2235 1491.31 2235 1489.13 2232.82 1489.13 2230.12L1489.13 2204.44 1466.89 2217.28C1464.56 2218.65 1461.58 2217.87 1460.21 2215.54 1458.85 2213.22 1459.63 2210.23 1461.95 2208.87 1461.97 2208.86 1461.99 2208.85 1462.01 2208.84L1484.25 2196 1462.01 2183.16C1459.69 2181.8 1458.91 2178.81 1460.27 2176.49 1461.62 2174.19 1464.57 2173.4 1466.89 2174.72L1489.13 2187.56 1489.13 2161.88C1489.13 2159.18 1491.31 2157 1494 2157Z"/></g></g></g><g><g><g><path d="M1624 2157C1626.69 2157 1628.88 2159.18 1628.88 2161.88L1628.88 2187.56 1651.11 2174.72C1653.44 2173.35 1656.42 2174.13 1657.79 2176.46 1659.15 2178.78 1658.37 2181.77 1656.05 2183.13 1656.03 2183.14 1656.01 2183.15 1655.99 2183.16L1633.75 2196 1655.99 2208.84C1658.33 2210.17 1659.15 2213.15 1657.82 2215.49 1656.49 2217.83 1653.51 2218.65 1651.17 2217.32 1651.15 2217.31 1651.13 2217.3 1651.11 2217.28L1628.88 2204.44 1628.88 2230.12C1628.88 2232.82 1626.69 2235 1624 2235 1621.31 2235 1619.12 2232.82 1619.12 2230.12L1619.12 2204.44 1596.89 2217.28C1594.56 2218.65 1591.58 2217.87 1590.21 2215.54 1588.85 2213.22 1589.63 2210.23 1591.95 2208.87 1591.97 2208.86 1591.99 2208.85 1592.01 2208.84L1614.25 2196 1592.01 2183.16C1589.69 2181.8 1588.91 2178.81 1590.27 2176.49 1591.62 2174.19 1594.57 2173.4 1596.89 2174.72L1619.12 2187.56 1619.12 2161.88C1619.12 2159.18 1621.31 2157 1624 2157Z"/></g></g></g><g><g><g><path d="M1753 2157C1755.69 2157 1757.87 2159.18 1757.87 2161.88L1757.87 2187.56 1780.11 2174.72C1782.44 2173.35 1785.42 2174.13 1786.79 2176.46 1788.15 2178.78 1787.37 2181.77 1785.05 2183.13 1785.03 2183.14 1785.01 2183.15 1784.99 2183.16L1762.75 2196 1784.99 2208.84C1787.33 2210.17 1788.15 2213.15 1786.82 2215.49 1785.49 2217.83 1782.51 2218.65 1780.17 2217.32 1780.15 2217.31 1780.13 2217.3 1780.11 2217.28L1757.87 2204.44 1757.87 2230.12C1757.87 2232.82 1755.69 2235 1753 2235 1750.31 2235 1748.12 2232.82 1748.12 2230.12L1748.12 2204.44 1725.89 2217.28C1723.56 2218.65 1720.58 2217.87 1719.21 2215.54 1717.85 2213.22 1718.63 2210.23 1720.95 2208.87 1720.97 2208.86 1720.99 2208.85 1721.01 2208.84L1743.25 2196 1721.01 2183.16C1718.69 2181.8 1717.91 2178.81 1719.27 2176.49 1720.62 2174.19 1723.57 2173.4 1725.89 2174.72L1748.12 2187.56 1748.12 2161.88C1748.12 2159.18 1750.31 2157 1753 2157Z"/></g></g></g><g><g><g><path d="M1883 2157C1885.69 2157 1887.87 2159.18 1887.87 2161.88L1887.87 2187.56 1910.11 2174.72C1912.44 2173.35 1915.42 2174.13 1916.79 2176.46 1918.15 2178.78 1917.37 2181.77 1915.05 2183.13 1915.03 2183.14 1915.01 2183.15 1914.99 2183.16L1892.75 2196 1914.99 2208.84C1917.33 2210.17 1918.15 2213.15 1916.82 2215.49 1915.49 2217.83 1912.51 2218.65 1910.17 2217.32 1910.15 2217.31 1910.13 2217.3 1910.11 2217.28L1887.87 2204.44 1887.87 2230.12C1887.87 2232.82 1885.69 2235 1883 2235 1880.31 2235 1878.12 2232.82 1878.12 2230.12L1878.12 2204.44 1855.89 2217.28C1853.56 2218.65 1850.58 2217.87 1849.21 2215.54 1847.85 2213.22 1848.63 2210.23 1850.95 2208.87 1850.97 2208.86 1850.99 2208.85 1851.01 2208.84L1873.25 2196 1851.01 2183.16C1848.69 2181.8 1847.91 2178.81 1849.27 2176.49 1850.62 2174.19 1853.57 2173.4 1855.89 2174.72L1878.12 2187.56 1878.12 2161.88C1878.12 2159.18 1880.31 2157 1883 2157Z"/></g></g></g><g><g><g><path d="M38.9998 0C41.6922-1.08246e-15 43.8748 2.1826 43.8748 4.87498L43.8748 30.5564 66.1145 17.7157C68.4371 16.354 71.4239 17.1331 72.7855 19.4557 74.1472 21.7784 73.3681 24.7651 71.0455 26.1268 71.0269 26.1377 71.0082 26.1485 70.9895 26.1591L48.7498 38.9998 70.9895 51.8405C73.33 53.1713 74.1486 56.1474 72.8179 58.4879 71.4871 60.8284 68.511 61.6471 66.1705 60.3163 66.1517 60.3057 66.1331 60.2949 66.1145 60.284L43.8748 47.4433 43.8748 73.1247C43.8748 75.8171 41.6922 77.9997 38.9998 77.9997 36.3075 77.9997 34.1249 75.8171 34.1249 73.1247L34.1249 47.4433 11.8852 60.284C9.56253 61.6457 6.5758 60.8666 5.21414 58.5439 3.85249 56.2213 4.63154 53.2345 6.95421 51.8729 6.97281 51.862 6.99148 51.8512 7.01022 51.8405L29.2499 38.9998 7.01022 26.1591C4.68755 24.7975 3.9085 21.8108 5.27015 19.4881 6.61905 17.1872 9.5666 16.3974 11.8852 17.7157L34.1249 30.5564 34.1249 4.87498C34.1249 2.1826 36.3075 -5.41231e-16 38.9998 -5.41231e-16Z" transform="matrix(1 0 0 1 1974 2157)"/></g></g></g></g></svg>