<svg width="1455" height="1455" xmlns="http://www.w3.org/2000/svg" xmlns:xlink="http://www.w3.org/1999/xlink" xml:space="preserve" overflow="hidden"><g transform="translate(-4054 -1949)"><g><g><g><path d="M92.625 432.25C92.625 432.25 61.75 432.25 61.75 401.375 61.75 370.5 92.625 277.875 247 277.875 401.375 277.875 432.25 370.5 432.25 401.375 432.25 432.25 401.375 432.25 401.375 432.25L92.625 432.25ZM247 247C298.155 247 339.625 205.53 339.625 154.375 339.625 103.22 298.155 61.75 247 61.75 195.845 61.75 154.375 103.22 154.375 154.375 154.375 205.53 195.845 247 247 247Z" transform="matrix(1 0 0 1 4209 1975)"/></g></g></g><g><g><g><path d="M92.625 432.25C92.625 432.25 61.75 432.25 61.75 401.375 61.75 370.5 92.625 277.875 247 277.875 401.375 277.875 432.25 370.5 432.25 401.375 432.25 432.25 401.375 432.25 401.375 432.25L92.625 432.25ZM247 247C298.155 247 339.625 205.53 339.625 154.375 339.625 103.22 298.155 61.75 247 61.75 195.845 61.75 154.375 103.22 154.375 154.375 154.375 205.53 195.845 247 247 247Z" transform="matrix(1 0 0 1 4859 1975)"/></g></g></g><g><g><g><path d="M92.4375 431.375C92.4375 431.375 61.625 431.375 61.625 400.562 61.625 369.75 92.4375 277.312 246.5 277.312 400.562 277.312 431.375 369.75 431.375 400.562 431.375 431.375 400.562 431.375 400.562 431.375L92.4375 431.375ZM246.5 246.5C297.552 246.5 338.937 205.114 338.937 154.062 338.937 103.011 297.552 61.625 246.5 61.625 195.448 61.625 154.062 103.011 154.062 154.062 154.062 205.114 195.448 246.5 246.5 246.5Z" transform="matrix(1.00203 0 0 1 4209 2677)"/></g></g></g><g><g><g><path d="M4951.62 3108.25C4951.62 3108.25 4920.75 3108.25 4920.75 3077.38 4920.75 3046.5 4951.62 2953.88 5106 2953.88 5260.38 2953.88 5291.25 3046.5 5291.25 3077.38 5291.25 3108.25 5260.38 3108.25 5260.38 3108.25L4951.62 3108.25ZM5106 2923C5157.16 2923 5198.62 2881.53 5198.62 2830.38 5198.62 2779.22 5157.16 2737.75 5106 2737.75 5054.84 2737.75 5013.38 2779.22 5013.38 2830.38 5013.38 2881.53 5054.84 2923 5106 2923Z"/></g></g></g><path d="M4183 2462.98C4183 2451.95 4191.95 2443 4202.98 2443L4709.02 2443C4720.05 2443 4729 2451.95 4729 2462.98L4729 2579.02C4729 2590.05 4720.05 2599 4709.02 2599L4202.98 2599C4191.95 2599 4183 2590.05 4183 2579.02Z" stroke="#000000" stroke-width="13.75" stroke-miterlimit="8" fill="none" fill-rule="evenodd"/><path d="M4833 2462.85C4833 2451.89 4841.89 2443 4852.85 2443L5359.15 2443C5370.11 2443 5379 2451.89 5379 2462.85L5379 2578.15C5379 2589.11 5370.11 2598 5359.15 2598L4852.85 2598C4841.89 2598 4833 2589.11 4833 2578.15Z" stroke="#000000" stroke-width="13.75" stroke-miterlimit="8" fill="none" fill-rule="evenodd"/><path d="M4183 3163.98C4183 3152.95 4191.95 3144 4202.98 3144L4709.02 3144C4720.05 3144 4729 3152.95 4729 3163.98L4729 3280.02C4729 3291.05 4720.05 3300 4709.02 3300L4202.98 3300C4191.95 3300 4183 3291.05 4183 3280.02Z" stroke="#000000" stroke-width="13.75" stroke-miterlimit="8" fill="none" fill-rule="evenodd"/><path d="M4833 3163.98C4833 3152.95 4841.95 3144 4852.98 3144L5359.02 3144C5370.05 3144 5379 3152.95 5379 3163.98L5379 3280.02C5379 3291.05 5370.05 3300 5359.02 3300L4852.98 3300C4841.95 3300 4833 3291.05 4833 3280.02Z" stroke="#000000" stroke-width="13.75" stroke-miterlimit="8" fill="none" fill-rule="evenodd"/><g><g><g><path d="M4235 2521C4235 2499.46 4252.46 2482 4274 2482 4295.54 2482 4313 2499.46 4313 2521 4313 2542.54 4295.54 2560 4274 2560 4252.46 2560 4235 2542.54 4235 2521ZM4271.56 2487.25C4268.3 2488.24 4265.05 2491.25 4262.36 2496.29 4261.67 2497.6 4261.02 2499.02 4260.44 2500.54 4263.87 2501.31 4267.61 2501.8 4271.56 2501.94L4271.56 2487.25ZM4255.71 2499.25C4256.41 2497.38 4257.2 2495.63 4258.06 2494 4258.9 2492.4 4259.88 2490.88 4260.97 2489.45 4256.82 2491.17 4253.05 2493.69 4249.87 2496.87 4251.64 2497.77 4253.59 2498.57 4255.71 2499.26ZM4252.11 2518.56C4252.28 2513.35 4253.02 2508.39 4254.23 2503.9 4251.59 2503.05 4249.04 2501.97 4246.6 2500.65 4242.72 2505.86 4240.42 2512.08 4239.96 2518.56L4252.1 2518.56ZM4258.93 2505.2C4257.78 2509.57 4257.13 2514.05 4256.98 2518.56L4271.56 2518.56 4271.56 2506.82C4267.13 2506.67 4262.87 2506.11 4258.93 2505.2ZM4276.44 2506.81 4276.44 2518.56 4291.01 2518.56C4290.87 2514.05 4290.22 2509.57 4289.07 2505.2 4285.13 2506.11 4280.87 2506.67 4276.44 2506.82ZM4256.99 2523.44C4257.16 2528.25 4257.84 2532.77 4258.93 2536.8 4263.08 2535.86 4267.31 2535.32 4271.56 2535.19L4271.56 2523.44 4256.99 2523.44ZM4276.44 2523.44 4276.44 2535.18C4280.87 2535.33 4285.13 2535.89 4289.07 2536.8 4290.16 2532.77 4290.84 2528.25 4291.02 2523.44L4276.44 2523.44ZM4260.44 2541.46C4261.02 2542.98 4261.67 2544.4 4262.36 2545.71 4265.05 2550.75 4268.3 2553.75 4271.56 2554.75L4271.56 2540.06C4267.61 2540.21 4263.87 2540.69 4260.44 2541.46ZM4260.97 2552.55C4259.88 2551.12 4258.9 2549.6 4258.06 2548 4257.16 2546.3 4256.38 2544.55 4255.71 2542.74 4253.71 2543.39 4251.76 2544.19 4249.87 2545.13 4253.05 2548.31 4256.82 2550.83 4260.97 2552.55ZM4254.23 2538.1C4252.97 2533.31 4252.25 2528.39 4252.1 2523.44L4239.96 2523.44C4240.42 2529.92 4242.72 2536.14 4246.6 2541.35 4248.89 2540.1 4251.45 2539 4254.23 2538.1ZM4287.03 2552.55C4291.18 2550.83 4294.95 2548.31 4298.12 2545.14 4296.24 2544.19 4294.29 2543.39 4292.29 2542.75 4291.62 2544.55 4290.84 2546.3 4289.94 2548 4289.1 2549.6 4288.12 2551.12 4287.03 2552.55ZM4276.44 2540.06 4276.44 2554.75C4279.7 2553.75 4282.95 2550.75 4285.64 2545.71 4286.33 2544.4 4286.98 2542.98 4287.56 2541.46 4283.9 2540.65 4280.18 2540.19 4276.44 2540.06ZM4293.77 2538.1C4296.55 2539 4299.11 2540.1 4301.4 2541.35 4305.28 2536.14 4307.58 2529.92 4308.04 2523.44L4295.9 2523.44C4295.75 2528.39 4295.03 2533.31 4293.77 2538.1ZM4308.04 2518.56C4307.58 2512.08 4305.28 2505.86 4301.4 2500.65 4299.11 2501.9 4296.55 2503 4293.77 2503.9 4294.98 2508.38 4295.72 2513.35 4295.9 2518.56L4308.04 2518.56ZM4289.94 2494C4290.8 2495.63 4291.59 2497.38 4292.29 2499.25 4294.29 2498.61 4296.24 2497.81 4298.12 2496.86 4294.95 2493.69 4291.18 2491.17 4287.03 2489.45 4288.09 2490.83 4289.07 2492.36 4289.94 2494ZM4287.56 2500.54C4287.01 2499.09 4286.37 2497.67 4285.64 2496.29 4282.95 2491.25 4279.7 2488.25 4276.44 2487.25L4276.44 2501.94C4280.39 2501.79 4284.13 2501.3 4287.56 2500.54Z"/></g></g></g><text font-family="Arial,Arial_MSFontService,sans-serif" font-weight="400" font-size="73" transform="matrix(1 0 0 1 4333.35 2548)">https://</text><g><g><g><path d="M4885 2521C4885 2499.46 4902.46 2482 4924 2482 4945.54 2482 4963 2499.46 4963 2521 4963 2542.54 4945.54 2560 4924 2560 4902.46 2560 4885 2542.54 4885 2521ZM4921.56 2487.25C4918.3 2488.24 4915.05 2491.25 4912.36 2496.29 4911.67 2497.6 4911.02 2499.02 4910.44 2500.54 4913.87 2501.31 4917.61 2501.8 4921.56 2501.94L4921.56 2487.25ZM4905.71 2499.25C4906.41 2497.38 4907.2 2495.63 4908.06 2494 4908.9 2492.4 4909.88 2490.88 4910.97 2489.45 4906.82 2491.17 4903.05 2493.69 4899.87 2496.87 4901.64 2497.77 4903.59 2498.57 4905.71 2499.26ZM4902.11 2518.56C4902.28 2513.35 4903.02 2508.39 4904.23 2503.9 4901.59 2503.05 4899.04 2501.97 4896.6 2500.65 4892.72 2505.86 4890.42 2512.08 4889.96 2518.56L4902.1 2518.56ZM4908.93 2505.2C4907.78 2509.57 4907.13 2514.05 4906.98 2518.56L4921.56 2518.56 4921.56 2506.82C4917.13 2506.67 4912.87 2506.11 4908.93 2505.2ZM4926.44 2506.81 4926.44 2518.56 4941.01 2518.56C4940.87 2514.05 4940.22 2509.57 4939.07 2505.2 4935.13 2506.11 4930.87 2506.67 4926.44 2506.82ZM4906.99 2523.44C4907.16 2528.25 4907.84 2532.77 4908.93 2536.8 4913.08 2535.86 4917.31 2535.32 4921.56 2535.19L4921.56 2523.44 4906.99 2523.44ZM4926.44 2523.44 4926.44 2535.18C4930.87 2535.33 4935.13 2535.89 4939.07 2536.8 4940.16 2532.77 4940.84 2528.25 4941.02 2523.44L4926.44 2523.44ZM4910.44 2541.46C4911.02 2542.98 4911.67 2544.4 4912.36 2545.71 4915.05 2550.75 4918.3 2553.75 4921.56 2554.75L4921.56 2540.06C4917.61 2540.21 4913.87 2540.69 4910.44 2541.46ZM4910.97 2552.55C4909.88 2551.12 4908.9 2549.6 4908.06 2548 4907.16 2546.3 4906.38 2544.55 4905.71 2542.74 4903.71 2543.39 4901.76 2544.19 4899.87 2545.13 4903.05 2548.31 4906.82 2550.83 4910.97 2552.55ZM4904.23 2538.1C4902.97 2533.31 4902.25 2528.39 4902.1 2523.44L4889.96 2523.44C4890.42 2529.92 4892.72 2536.14 4896.6 2541.35 4898.89 2540.1 4901.45 2539 4904.23 2538.1ZM4937.03 2552.55C4941.18 2550.83 4944.95 2548.31 4948.12 2545.14 4946.24 2544.19 4944.29 2543.39 4942.29 2542.75 4941.62 2544.55 4940.84 2546.3 4939.94 2548 4939.1 2549.6 4938.12 2551.12 4937.03 2552.55ZM4926.44 2540.06 4926.44 2554.75C4929.7 2553.75 4932.95 2550.75 4935.64 2545.71 4936.33 2544.4 4936.98 2542.98 4937.56 2541.46 4933.9 2540.65 4930.18 2540.19 4926.44 2540.06ZM4943.77 2538.1C4946.55 2539 4949.11 2540.1 4951.4 2541.35 4955.28 2536.14 4957.58 2529.92 4958.04 2523.44L4945.9 2523.44C4945.75 2528.39 4945.03 2533.31 4943.77 2538.1ZM4958.04 2518.56C4957.58 2512.08 4955.28 2505.86 4951.4 2500.65 4949.11 2501.9 4946.55 2503 4943.77 2503.9 4944.98 2508.38 4945.72 2513.35 4945.9 2518.56L4958.04 2518.56ZM4939.94 2494C4940.8 2495.63 4941.59 2497.38 4942.29 2499.25 4944.29 2498.61 4946.24 2497.81 4948.12 2496.86 4944.95 2493.69 4941.18 2491.17 4937.03 2489.45 4938.09 2490.83 4939.07 2492.36 4939.94 2494ZM4937.56 2500.54C4937.01 2499.09 4936.37 2497.67 4935.64 2496.29 4932.95 2491.25 4929.7 2488.25 4926.44 2487.25L4926.44 2501.94C4930.39 2501.79 4934.13 2501.3 4937.56 2500.54Z"/></g></g></g><text font-family="Arial,Arial_MSFontService,sans-serif" font-weight="400" font-size="73" transform="matrix(1 0 0 1 4983.02 2548)">https://</text><g><g><g><path d="M4235 3222C4235 3200.46 4252.46 3183 4274 3183 4295.54 3183 4313 3200.46 4313 3222 4313 3243.54 4295.54 3261 4274 3261 4252.46 3261 4235 3243.54 4235 3222ZM4271.56 3188.25C4268.3 3189.25 4265.05 3192.25 4262.36 3197.29 4261.67 3198.6 4261.02 3200.02 4260.44 3201.54 4263.87 3202.31 4267.61 3202.8 4271.56 3202.94L4271.56 3188.25ZM4255.71 3200.25C4256.41 3198.38 4257.2 3196.63 4258.06 3195 4258.9 3193.4 4259.88 3191.88 4260.97 3190.45 4256.82 3192.17 4253.05 3194.69 4249.87 3197.87 4251.64 3198.77 4253.59 3199.57 4255.71 3200.26ZM4252.11 3219.56C4252.28 3214.35 4253.02 3209.39 4254.23 3204.9 4251.59 3204.05 4249.04 3202.97 4246.6 3201.65 4242.72 3206.86 4240.42 3213.08 4239.96 3219.56L4252.1 3219.56ZM4258.93 3206.2C4257.78 3210.57 4257.13 3215.05 4256.98 3219.56L4271.56 3219.56 4271.56 3207.82C4267.13 3207.67 4262.87 3207.11 4258.93 3206.2ZM4276.44 3207.81 4276.44 3219.56 4291.01 3219.56C4290.87 3215.05 4290.22 3210.57 4289.07 3206.2 4285.13 3207.11 4280.87 3207.67 4276.44 3207.82ZM4256.99 3224.44C4257.16 3229.25 4257.84 3233.77 4258.93 3237.8 4263.08 3236.86 4267.31 3236.32 4271.56 3236.19L4271.56 3224.44 4256.99 3224.44ZM4276.44 3224.44 4276.44 3236.18C4280.87 3236.33 4285.13 3236.89 4289.07 3237.8 4290.16 3233.77 4290.84 3229.25 4291.02 3224.44L4276.44 3224.44ZM4260.44 3242.46C4261.02 3243.98 4261.67 3245.4 4262.36 3246.71 4265.05 3251.75 4268.3 3254.75 4271.56 3255.75L4271.56 3241.06C4267.61 3241.21 4263.87 3241.7 4260.44 3242.46ZM4260.97 3253.55C4259.88 3252.12 4258.9 3250.6 4258.06 3249 4257.16 3247.3 4256.38 3245.55 4255.71 3243.74 4253.71 3244.39 4251.76 3245.19 4249.87 3246.13 4253.05 3249.31 4256.82 3251.83 4260.97 3253.55ZM4254.23 3239.1C4252.97 3234.31 4252.25 3229.39 4252.1 3224.44L4239.96 3224.44C4240.42 3230.92 4242.72 3237.14 4246.6 3242.35 4248.89 3241.1 4251.45 3240 4254.23 3239.1ZM4287.03 3253.55C4291.18 3251.83 4294.95 3249.31 4298.12 3246.14 4296.24 3245.19 4294.29 3244.39 4292.29 3243.75 4291.62 3245.55 4290.84 3247.31 4289.94 3249 4289.1 3250.6 4288.12 3252.12 4287.03 3253.55ZM4276.44 3241.06 4276.44 3255.75C4279.7 3254.76 4282.95 3251.75 4285.64 3246.71 4286.33 3245.4 4286.98 3243.98 4287.56 3242.46 4283.9 3241.65 4280.18 3241.19 4276.44 3241.06ZM4293.77 3239.1C4296.55 3240 4299.11 3241.1 4301.4 3242.35 4305.28 3237.14 4307.58 3230.92 4308.04 3224.44L4295.9 3224.44C4295.75 3229.39 4295.03 3234.31 4293.77 3239.1ZM4308.04 3219.56C4307.58 3213.08 4305.28 3206.86 4301.4 3201.65 4299.11 3202.9 4296.55 3204 4293.77 3204.9 4294.98 3209.38 4295.72 3214.35 4295.9 3219.56L4308.04 3219.56ZM4289.94 3195C4290.8 3196.63 4291.59 3198.38 4292.29 3200.25 4294.29 3199.61 4296.24 3198.81 4298.12 3197.86 4294.95 3194.69 4291.18 3192.17 4287.03 3190.45 4288.09 3191.83 4289.07 3193.36 4289.94 3195ZM4287.56 3201.54C4287.01 3200.09 4286.37 3198.67 4285.64 3197.29 4282.95 3192.25 4279.7 3189.25 4276.44 3188.25L4276.44 3202.94C4280.39 3202.79 4284.13 3202.31 4287.56 3201.54Z"/></g></g></g><text font-family="Arial,Arial_MSFontService,sans-serif" font-weight="400" font-size="73" transform="matrix(1 0 0 1 4333.35 3249)">https://</text><g><g><g><path d="M4885 3222C4885 3200.46 4902.46 3183 4924 3183 4945.54 3183 4963 3200.46 4963 3222 4963 3243.54 4945.54 3261 4924 3261 4902.46 3261 4885 3243.54 4885 3222ZM4921.56 3188.25C4918.3 3189.25 4915.05 3192.25 4912.36 3197.29 4911.67 3198.6 4911.02 3200.02 4910.44 3201.54 4913.87 3202.31 4917.61 3202.8 4921.56 3202.94L4921.56 3188.25ZM4905.71 3200.25C4906.41 3198.38 4907.2 3196.63 4908.06 3195 4908.9 3193.4 4909.88 3191.88 4910.97 3190.45 4906.82 3192.17 4903.05 3194.69 4899.87 3197.87 4901.64 3198.77 4903.59 3199.57 4905.71 3200.26ZM4902.11 3219.56C4902.28 3214.35 4903.02 3209.39 4904.23 3204.9 4901.59 3204.05 4899.04 3202.97 4896.6 3201.65 4892.72 3206.86 4890.42 3213.08 4889.96 3219.56L4902.1 3219.56ZM4908.93 3206.2C4907.78 3210.57 4907.13 3215.05 4906.98 3219.56L4921.56 3219.56 4921.56 3207.82C4917.13 3207.67 4912.87 3207.11 4908.93 3206.2ZM4926.44 3207.81 4926.44 3219.56 4941.01 3219.56C4940.87 3215.05 4940.22 3210.57 4939.07 3206.2 4935.13 3207.11 4930.87 3207.67 4926.44 3207.82ZM4906.99 3224.44C4907.16 3229.25 4907.84 3233.77 4908.93 3237.8 4913.08 3236.86 4917.31 3236.32 4921.56 3236.19L4921.56 3224.44 4906.99 3224.44ZM4926.44 3224.44 4926.44 3236.18C4930.87 3236.33 4935.13 3236.89 4939.07 3237.8 4940.16 3233.77 4940.84 3229.25 4941.02 3224.44L4926.44 3224.44ZM4910.44 3242.46C4911.02 3243.98 4911.67 3245.4 4912.36 3246.71 4915.05 3251.75 4918.3 3254.75 4921.56 3255.75L4921.56 3241.06C4917.61 3241.21 4913.87 3241.7 4910.44 3242.46ZM4910.97 3253.55C4909.88 3252.12 4908.9 3250.6 4908.06 3249 4907.16 3247.3 4906.38 3245.55 4905.71 3243.74 4903.71 3244.39 4901.76 3245.19 4899.87 3246.13 4903.05 3249.31 4906.82 3251.83 4910.97 3253.55ZM4904.23 3239.1C4902.97 3234.31 4902.25 3229.39 4902.1 3224.44L4889.96 3224.44C4890.42 3230.92 4892.72 3237.14 4896.6 3242.35 4898.89 3241.1 4901.45 3240 4904.23 3239.1ZM4937.03 3253.55C4941.18 3251.83 4944.95 3249.31 4948.12 3246.14 4946.24 3245.19 4944.29 3244.39 4942.29 3243.75 4941.62 3245.55 4940.84 3247.31 4939.94 3249 4939.1 3250.6 4938.12 3252.12 4937.03 3253.55ZM4926.44 3241.06 4926.44 3255.75C4929.7 3254.76 4932.95 3251.75 4935.64 3246.71 4936.33 3245.4 4936.98 3243.98 4937.56 3242.46 4933.9 3241.65 4930.18 3241.19 4926.44 3241.06ZM4943.77 3239.1C4946.55 3240 4949.11 3241.1 4951.4 3242.35 4955.28 3237.14 4957.58 3230.92 4958.04 3224.44L4945.9 3224.44C4945.75 3229.39 4945.03 3234.31 4943.77 3239.1ZM4958.04 3219.56C4957.58 3213.08 4955.28 3206.86 4951.4 3201.65 4949.11 3202.9 4946.55 3204 4943.77 3204.9 4944.98 3209.38 4945.72 3214.35 4945.9 3219.56L4958.04 3219.56ZM4939.94 3195C4940.8 3196.63 4941.59 3198.38 4942.29 3200.25 4944.29 3199.61 4946.24 3198.81 4948.12 3197.86 4944.95 3194.69 4941.18 3192.17 4937.03 3190.45 4938.09 3191.83 4939.07 3193.36 4939.94 3195ZM4937.56 3201.54C4937.01 3200.09 4936.37 3198.67 4935.64 3197.29 4932.95 3192.25 4929.7 3189.25 4926.44 3188.25L4926.44 3202.94C4930.39 3202.79 4934.13 3202.31 4937.56 3201.54Z"/></g></g></g><text font-family="Arial,Arial_MSFontService,sans-serif" font-weight="400" font-size="73" transform="matrix(1 0 0 1 4983.02 3249)">https://</text></g></svg>