<svg width="1455" height="1455" xmlns="http://www.w3.org/2000/svg" xmlns:xlink="http://www.w3.org/1999/xlink" xml:space="preserve" overflow="hidden"><g transform="translate(-2442 -2573)"><g><g><g><path d="M92.625 432.25C92.625 432.25 61.75 432.25 61.75 401.375 61.75 370.5 92.625 277.875 247 277.875 401.375 277.875 432.25 370.5 432.25 401.375 432.25 432.25 401.375 432.25 401.375 432.25L92.625 432.25ZM247 247C298.155 247 339.625 205.53 339.625 154.375 339.625 103.22 298.155 61.75 247 61.75 195.845 61.75 154.375 103.22 154.375 154.375 154.375 205.53 195.845 247 247 247Z" transform="matrix(1 0 0 1 2546 3053)"/></g></g></g><path d="M3045 3033.98C3045 3022.95 3053.95 3014 3064.98 3014L3727.02 3014C3738.05 3014 3747 3022.95 3747 3033.98L3747 3150.02C3747 3161.05 3738.05 3170 3727.02 3170L3064.98 3170C3053.95 3170 3045 3161.05 3045 3150.02Z" stroke="#000000" stroke-width="13.75" stroke-miterlimit="8" fill="none" fill-rule="evenodd"/><g><g><g><path d="M3123 3066C3124.79 3066 3126.25 3067.46 3126.25 3069.25L3126.25 3086.37 3141.08 3077.81C3142.62 3076.9 3144.62 3077.42 3145.52 3078.97 3146.43 3080.52 3145.91 3082.51 3144.36 3083.42 3144.35 3083.43 3144.34 3083.43 3144.33 3083.44L3129.5 3092 3144.33 3100.56C3145.89 3101.45 3146.43 3103.43 3145.55 3104.99 3144.66 3106.55 3142.67 3107.1 3141.11 3106.21 3141.1 3106.2 3141.09 3106.2 3141.08 3106.19L3126.25 3097.63 3126.25 3114.75C3126.25 3116.55 3124.79 3118 3123 3118 3121.2 3118 3119.75 3116.55 3119.75 3114.75L3119.75 3097.63 3104.92 3106.19C3103.37 3107.1 3101.38 3106.58 3100.48 3105.03 3099.57 3103.48 3100.09 3101.49 3101.64 3100.58 3101.65 3100.57 3101.66 3100.57 3101.67 3100.56L3116.5 3092 3101.67 3083.44C3100.12 3082.53 3099.61 3080.54 3100.51 3078.99 3101.41 3077.46 3103.38 3076.93 3104.92 3077.81L3119.75 3086.37 3119.75 3069.25C3119.75 3067.46 3121.2 3066 3123 3066Z"/></g></g></g><g><g><g><path d="M3201 3066C3202.79 3066 3204.25 3067.46 3204.25 3069.25L3204.25 3086.37 3219.08 3077.81C3220.62 3076.9 3222.62 3077.42 3223.52 3078.97 3224.43 3080.52 3223.91 3082.51 3222.36 3083.42 3222.35 3083.43 3222.34 3083.43 3222.33 3083.44L3207.5 3092 3222.33 3100.56C3223.89 3101.45 3224.43 3103.43 3223.55 3104.99 3222.66 3106.55 3220.67 3107.1 3219.11 3106.21 3219.1 3106.2 3219.09 3106.2 3219.08 3106.19L3204.25 3097.63 3204.25 3114.75C3204.25 3116.55 3202.79 3118 3201 3118 3199.2 3118 3197.75 3116.55 3197.75 3114.75L3197.75 3097.63 3182.92 3106.19C3181.37 3107.1 3179.38 3106.58 3178.48 3105.03 3177.57 3103.48 3178.09 3101.49 3179.64 3100.58 3179.65 3100.57 3179.66 3100.57 3179.67 3100.56L3194.5 3092 3179.67 3083.44C3178.12 3082.53 3177.61 3080.54 3178.51 3078.99 3179.41 3077.46 3181.38 3076.93 3182.92 3077.81L3197.75 3086.37 3197.75 3069.25C3197.75 3067.46 3199.2 3066 3201 3066Z"/></g></g></g><g><g><g><path d="M3279 3066C3280.8 3066 3282.25 3067.46 3282.25 3069.25L3282.25 3086.37 3297.08 3077.81C3298.63 3076.9 3300.62 3077.42 3301.52 3078.97 3302.43 3080.52 3301.91 3082.51 3300.36 3083.42 3300.35 3083.43 3300.34 3083.43 3300.33 3083.44L3285.5 3092 3300.33 3100.56C3301.89 3101.45 3302.43 3103.43 3301.55 3104.99 3300.66 3106.55 3298.67 3107.1 3297.11 3106.21 3297.1 3106.2 3297.09 3106.2 3297.08 3106.19L3282.25 3097.63 3282.25 3114.75C3282.25 3116.55 3280.8 3118 3279 3118 3277.21 3118 3275.75 3116.55 3275.75 3114.75L3275.75 3097.63 3260.92 3106.19C3259.38 3107.1 3257.38 3106.58 3256.48 3105.03 3255.57 3103.48 3256.09 3101.49 3257.64 3100.58 3257.65 3100.57 3257.66 3100.57 3257.67 3100.56L3272.5 3092 3257.67 3083.44C3256.12 3082.53 3255.61 3080.54 3256.51 3078.99 3257.41 3077.46 3259.38 3076.93 3260.92 3077.81L3275.75 3086.37 3275.75 3069.25C3275.75 3067.46 3277.21 3066 3279 3066Z"/></g></g></g><g><g><g><path d="M26 0C27.7949 -7.21644e-16 29.2499 1.45507 29.2499 3.24999L29.2499 20.371 44.0764 11.8105C45.6249 10.9027 47.616 11.4221 48.5238 12.9705 49.4316 14.519 48.9122 16.5101 47.3638 17.4179 47.3514 17.4252 47.3389 17.4324 47.3264 17.4395L32.4999 26 47.3264 34.5604C48.8868 35.4476 49.4325 37.4317 48.5454 38.992 47.6582 40.5524 45.6741 41.0981 44.1138 40.211 44.1013 40.2039 44.0888 40.1967 44.0764 40.1894L29.2499 31.6289 29.2499 48.7499C29.2499 50.5448 27.7949 51.9999 26 51.9999 24.205 51.9999 22.75 50.5448 22.75 48.7499L22.75 31.6289 7.92348 40.1894C6.37504 41.0972 4.38387 40.5778 3.4761 39.0294 2.56833 37.4809 3.0877 35.4898 4.63615 34.582 4.64855 34.5747 4.661 34.5675 4.67349 34.5604L19.5 26 4.67349 17.4395C3.12504 16.5317 2.60567 14.5405 3.51344 12.9921 4.41271 11.4581 6.37775 10.9316 7.92348 11.8105L22.75 20.371 22.75 3.24999C22.75 1.45507 24.205 -3.60822e-16 26 -3.60822e-16Z" transform="matrix(1 0 0 1.00001 3331 3066)"/></g></g></g><g><g><g><path d="M26 0C27.7949 -7.21644e-16 29.2499 1.45507 29.2499 3.24999L29.2499 20.371 44.0764 11.8105C45.6249 10.9027 47.616 11.4221 48.5238 12.9705 49.4316 14.519 48.9122 16.5101 47.3638 17.4179 47.3514 17.4252 47.3389 17.4324 47.3264 17.4395L32.4999 26 47.3264 34.5604C48.8868 35.4476 49.4325 37.4317 48.5454 38.992 47.6582 40.5524 45.6741 41.0981 44.1138 40.211 44.1013 40.2039 44.0888 40.1967 44.0764 40.1894L29.2499 31.6289 29.2499 48.7499C29.2499 50.5448 27.7949 51.9999 26 51.9999 24.205 51.9999 22.75 50.5448 22.75 48.7499L22.75 31.6289 7.92348 40.1894C6.37504 41.0972 4.38387 40.5778 3.4761 39.0294 2.56833 37.4809 3.0877 35.4898 4.63615 34.582 4.64855 34.5747 4.661 34.5675 4.67349 34.5604L19.5 26 4.67349 17.4395C3.12504 16.5317 2.60567 14.5405 3.51344 12.9921 4.41271 11.4581 6.37775 10.9316 7.92348 11.8105L22.75 20.371 22.75 3.24999C22.75 1.45507 24.205 -3.60822e-16 26 -3.60822e-16Z" transform="matrix(1 0 0 1.00001 3409 3066)"/></g></g></g><g><g><g><path d="M26 0C27.7949 -7.21644e-16 29.2499 1.45507 29.2499 3.24999L29.2499 20.371 44.0764 11.8105C45.6249 10.9027 47.616 11.4221 48.5238 12.9705 49.4316 14.519 48.9122 16.5101 47.3638 17.4179 47.3514 17.4252 47.3389 17.4324 47.3264 17.4395L32.4999 26 47.3264 34.5604C48.8868 35.4476 49.4325 37.4317 48.5454 38.992 47.6582 40.5524 45.6741 41.0981 44.1138 40.211 44.1013 40.2039 44.0888 40.1967 44.0764 40.1894L29.2499 31.6289 29.2499 48.7499C29.2499 50.5448 27.7949 51.9999 26 51.9999 24.205 51.9999 22.75 50.5448 22.75 48.7499L22.75 31.6289 7.92348 40.1894C6.37504 41.0972 4.38387 40.5778 3.4761 39.0294 2.56833 37.4809 3.0877 35.4898 4.63615 34.582 4.64855 34.5747 4.661 34.5675 4.67349 34.5604L19.5 26 4.67349 17.4395C3.12504 16.5317 2.60567 14.5405 3.51344 12.9921 4.41271 11.4581 6.37775 10.9316 7.92348 11.8105L22.75 20.371 22.75 3.24999C22.75 1.45507 24.205 -3.60822e-16 26 -3.60822e-16Z" transform="matrix(1 0 0 1.00001 3487 3066)"/></g></g></g><g><g><g><path d="M26 0C27.7949 -7.21644e-16 29.2499 1.45507 29.2499 3.24999L29.2499 20.371 44.0764 11.8105C45.6249 10.9027 47.616 11.4221 48.5238 12.9705 49.4316 14.519 48.9122 16.5101 47.3638 17.4179 47.3514 17.4252 47.3389 17.4324 47.3264 17.4395L32.4999 26 47.3264 34.5604C48.8868 35.4476 49.4325 37.4317 48.5454 38.992 47.6582 40.5524 45.6741 41.0981 44.1138 40.211 44.1013 40.2039 44.0888 40.1967 44.0764 40.1894L29.2499 31.6289 29.2499 48.7499C29.2499 50.5448 27.7949 51.9999 26 51.9999 24.205 51.9999 22.75 50.5448 22.75 48.7499L22.75 31.6289 7.92348 40.1894C6.37504 41.0972 4.38387 40.5778 3.4761 39.0294 2.56833 37.4809 3.0877 35.4898 4.63615 34.582 4.64855 34.5747 4.661 34.5675 4.67349 34.5604L19.5 26 4.67349 17.4395C3.12504 16.5317 2.60567 14.5405 3.51344 12.9921 4.41271 11.4581 6.37775 10.9316 7.92348 11.8105L22.75 20.371 22.75 3.24999C22.75 1.45507 24.205 -3.60822e-16 26 -3.60822e-16Z" transform="matrix(1 0 0 1.00001 3565 3066)"/></g></g></g><g><g><g><path d="M26 0C27.7949 -7.21644e-16 29.2499 1.45507 29.2499 3.24999L29.2499 20.371 44.0764 11.8105C45.6249 10.9027 47.616 11.4221 48.5238 12.9705 49.4316 14.519 48.9122 16.5101 47.3638 17.4179 47.3514 17.4252 47.3389 17.4324 47.3264 17.4395L32.4999 26 47.3264 34.5604C48.8868 35.4476 49.4325 37.4317 48.5454 38.992 47.6582 40.5524 45.6741 41.0981 44.1138 40.211 44.1013 40.2039 44.0888 40.1967 44.0764 40.1894L29.2499 31.6289 29.2499 48.7499C29.2499 50.5448 27.7949 51.9999 26 51.9999 24.205 51.9999 22.75 50.5448 22.75 48.7499L22.75 31.6289 7.92348 40.1894C6.37504 41.0972 4.38387 40.5778 3.4761 39.0294 2.56833 37.4809 3.0877 35.4898 4.63615 34.582 4.64855 34.5747 4.661 34.5675 4.67349 34.5604L19.5 26 4.67349 17.4395C3.12504 16.5317 2.60567 14.5405 3.51344 12.9921 4.41271 11.4581 6.37775 10.9316 7.92348 11.8105L22.75 20.371 22.75 3.24999C22.75 1.45507 24.205 -3.60822e-16 26 -3.60822e-16Z" transform="matrix(1 0 0 1.00001 3643 3066)"/></g></g></g><path d="M3123 3449.98C3123 3438.95 3131.95 3430 3142.98 3430L3649.02 3430C3660.05 3430 3669 3438.95 3669 3449.98L3669 3566.02C3669 3577.05 3660.05 3586 3649.02 3586L3142.98 3586C3131.95 3586 3123 3577.05 3123 3566.02Z" stroke="#000000" stroke-width="13.75" stroke-miterlimit="8" fill="none" fill-rule="evenodd"/><g><g><g><path d="M3201 3482C3202.79 3482 3204.25 3483.45 3204.25 3485.25L3204.25 3502.37 3219.08 3493.81C3220.62 3492.9 3222.62 3493.42 3223.52 3494.97 3224.43 3496.52 3223.91 3498.51 3222.36 3499.42 3222.35 3499.43 3222.34 3499.43 3222.33 3499.44L3207.5 3508 3222.33 3516.56C3223.89 3517.45 3224.43 3519.43 3223.55 3520.99 3222.66 3522.55 3220.67 3523.1 3219.11 3522.21 3219.1 3522.2 3219.09 3522.2 3219.08 3522.19L3204.25 3513.63 3204.25 3530.75C3204.25 3532.54 3202.79 3534 3201 3534 3199.2 3534 3197.75 3532.54 3197.75 3530.75L3197.75 3513.63 3182.92 3522.19C3181.37 3523.1 3179.38 3522.58 3178.48 3521.03 3177.57 3519.48 3178.09 3517.49 3179.64 3516.58 3179.65 3516.57 3179.66 3516.57 3179.67 3516.56L3194.5 3508 3179.67 3499.44C3178.12 3498.53 3177.61 3496.54 3178.51 3494.99 3179.41 3493.46 3181.38 3492.93 3182.92 3493.81L3197.75 3502.37 3197.75 3485.25C3197.75 3483.45 3199.2 3482 3201 3482Z"/></g></g></g><g><g><g><path d="M3279 3482C3280.8 3482 3282.25 3483.45 3282.25 3485.25L3282.25 3502.37 3297.08 3493.81C3298.63 3492.9 3300.62 3493.42 3301.52 3494.97 3302.43 3496.52 3301.91 3498.51 3300.36 3499.42 3300.35 3499.43 3300.34 3499.43 3300.33 3499.44L3285.5 3508 3300.33 3516.56C3301.89 3517.45 3302.43 3519.43 3301.55 3520.99 3300.66 3522.55 3298.67 3523.1 3297.11 3522.21 3297.1 3522.2 3297.09 3522.2 3297.08 3522.19L3282.25 3513.63 3282.25 3530.75C3282.25 3532.54 3280.8 3534 3279 3534 3277.21 3534 3275.75 3532.54 3275.75 3530.75L3275.75 3513.63 3260.92 3522.19C3259.38 3523.1 3257.38 3522.58 3256.48 3521.03 3255.57 3519.48 3256.09 3517.49 3257.64 3516.58 3257.65 3516.57 3257.66 3516.57 3257.67 3516.56L3272.5 3508 3257.67 3499.44C3256.12 3498.53 3255.61 3496.54 3256.51 3494.99 3257.41 3493.46 3259.38 3492.93 3260.92 3493.81L3275.75 3502.37 3275.75 3485.25C3275.75 3483.45 3277.21 3482 3279 3482Z"/></g></g></g><g><g><g><path d="M26 0C27.7949 -7.21644e-16 29.2499 1.45507 29.2499 3.24999L29.2499 20.371 44.0764 11.8105C45.6249 10.9027 47.616 11.4221 48.5238 12.9705 49.4316 14.519 48.9122 16.5101 47.3638 17.4179 47.3514 17.4252 47.3389 17.4324 47.3264 17.4395L32.4999 26 47.3264 34.5604C48.8868 35.4476 49.4325 37.4317 48.5454 38.992 47.6582 40.5524 45.6741 41.0981 44.1138 40.211 44.1013 40.2039 44.0888 40.1967 44.0764 40.1894L29.2499 31.6289 29.2499 48.7499C29.2499 50.5448 27.7949 51.9999 26 51.9999 24.205 51.9999 22.75 50.5448 22.75 48.7499L22.75 31.6289 7.92348 40.1894C6.37504 41.0972 4.38387 40.5778 3.4761 39.0294 2.56833 37.4809 3.0877 35.4898 4.63615 34.582 4.64855 34.5747 4.661 34.5675 4.67349 34.5604L19.5 26 4.67349 17.4395C3.12504 16.5317 2.60567 14.5405 3.51344 12.9921 4.41271 11.4581 6.37775 10.9316 7.92348 11.8105L22.75 20.371 22.75 3.24999C22.75 1.45507 24.205 -3.60822e-16 26 -3.60822e-16Z" transform="matrix(1 0 0 1.00001 3331 3482)"/></g></g></g><g><g><g><path d="M26 0C27.7949 -7.21644e-16 29.2499 1.45507 29.2499 3.24999L29.2499 20.371 44.0764 11.8105C45.6249 10.9027 47.616 11.4221 48.5238 12.9705 49.4316 14.519 48.9122 16.5101 47.3638 17.4179 47.3514 17.4252 47.3389 17.4324 47.3264 17.4395L32.4999 26 47.3264 34.5604C48.8868 35.4476 49.4325 37.4317 48.5454 38.992 47.6582 40.5524 45.6741 41.0981 44.1138 40.211 44.1013 40.2039 44.0888 40.1967 44.0764 40.1894L29.2499 31.6289 29.2499 48.7499C29.2499 50.5448 27.7949 51.9999 26 51.9999 24.205 51.9999 22.75 50.5448 22.75 48.7499L22.75 31.6289 7.92348 40.1894C6.37504 41.0972 4.38387 40.5778 3.4761 39.0294 2.56833 37.4809 3.0877 35.4898 4.63615 34.582 4.64855 34.5747 4.661 34.5675 4.67349 34.5604L19.5 26 4.67349 17.4395C3.12504 16.5317 2.60567 14.5405 3.51344 12.9921 4.41271 11.4581 6.37775 10.9316 7.92348 11.8105L22.75 20.371 22.75 3.24999C22.75 1.45507 24.205 -3.60822e-16 26 -3.60822e-16Z" transform="matrix(1 0 0 1.00001 3409 3482)"/></g></g></g><g><g><g><path d="M26 0C27.7949 -7.21644e-16 29.2499 1.45507 29.2499 3.24999L29.2499 20.371 44.0764 11.8105C45.6249 10.9027 47.616 11.4221 48.5238 12.9705 49.4316 14.519 48.9122 16.5101 47.3638 17.4179 47.3514 17.4252 47.3389 17.4324 47.3264 17.4395L32.4999 26 47.3264 34.5604C48.8868 35.4476 49.4325 37.4317 48.5454 38.992 47.6582 40.5524 45.6741 41.0981 44.1138 40.211 44.1013 40.2039 44.0888 40.1967 44.0764 40.1894L29.2499 31.6289 29.2499 48.7499C29.2499 50.5448 27.7949 51.9999 26 51.9999 24.205 51.9999 22.75 50.5448 22.75 48.7499L22.75 31.6289 7.92348 40.1894C6.37504 41.0972 4.38387 40.5778 3.4761 39.0294 2.56833 37.4809 3.0877 35.4898 4.63615 34.582 4.64855 34.5747 4.661 34.5675 4.67349 34.5604L19.5 26 4.67349 17.4395C3.12504 16.5317 2.60567 14.5405 3.51344 12.9921 4.41271 11.4581 6.37775 10.9316 7.92348 11.8105L22.75 20.371 22.75 3.24999C22.75 1.45507 24.205 -3.60822e-16 26 -3.60822e-16Z" transform="matrix(1 0 0 1.00001 3487 3482)"/></g></g></g><g><g><g><path d="M26 0C27.7949 -7.21644e-16 29.2499 1.45507 29.2499 3.24999L29.2499 20.371 44.0764 11.8105C45.6249 10.9027 47.616 11.4221 48.5238 12.9705 49.4316 14.519 48.9122 16.5101 47.3638 17.4179 47.3514 17.4252 47.3389 17.4324 47.3264 17.4395L32.4999 26 47.3264 34.5604C48.8868 35.4476 49.4325 37.4317 48.5454 38.992 47.6582 40.5524 45.6741 41.0981 44.1138 40.211 44.1013 40.2039 44.0888 40.1967 44.0764 40.1894L29.2499 31.6289 29.2499 48.7499C29.2499 50.5448 27.7949 51.9999 26 51.9999 24.205 51.9999 22.75 50.5448 22.75 48.7499L22.75 31.6289 7.92348 40.1894C6.37504 41.0972 4.38387 40.5778 3.4761 39.0294 2.56833 37.4809 3.0877 35.4898 4.63615 34.582 4.64855 34.5747 4.661 34.5675 4.67349 34.5604L19.5 26 4.67349 17.4395C3.12504 16.5317 2.60567 14.5405 3.51344 12.9921 4.41271 11.4581 6.37775 10.9316 7.92348 11.8105L22.75 20.371 22.75 3.24999C22.75 1.45507 24.205 -3.60822e-16 26 -3.60822e-16Z" transform="matrix(1 0 0 1.00001 3565 3482)"/></g></g></g><g><g><g><path d="M103.5 51.75C107.073 51.75 109.969 54.6461 109.969 58.2187L109.969 97.0312 148.781 97.0312C152.354 97.0312 155.25 99.9274 155.25 103.5 155.25 107.073 152.354 109.969 148.781 109.969L109.969 109.969 109.969 148.781C109.969 152.354 107.073 155.25 103.5 155.25 99.9274 155.25 97.0312 152.354 97.0312 148.781L97.0312 109.969 58.2187 109.969C54.6461 109.969 51.75 107.073 51.75 103.5 51.75 99.9274 54.6461 97.0312 58.2187 97.0312L97.0312 97.0312 97.0312 58.2187C97.0312 54.6461 99.9274 51.75 103.5 51.75Z" transform="matrix(1.00483 0 0 1 3292 3199)"/></g></g></g></g></svg>