<svg width="244" height="243" xmlns="http://www.w3.org/2000/svg" xmlns:xlink="http://www.w3.org/1999/xlink" overflow="hidden"><g transform="translate(-135 -302)"><path d="M219.5 344.5 355.563 344.5" stroke="#000000" stroke-width="13.3333" stroke-linecap="round" stroke-linejoin="round" stroke-miterlimit="10" fill="none" fill-rule="evenodd"/><path d="M151 344C151 331.297 161.074 321 173.5 321 185.926 321 196 331.297 196 344 196 356.703 185.926 367 173.5 367 161.074 367 151 356.703 151 344ZM164.992 344C164.992 348.975 168.801 353.008 173.5 353.008 178.199 353.008 182.008 348.975 182.008 344 182.008 339.025 178.199 334.992 173.5 334.992 168.801 334.992 164.992 339.025 164.992 344Z" fill-rule="evenodd"/><path d="M219.5 450.5 355.563 450.5" stroke="#000000" stroke-width="13.3333" stroke-linecap="round" stroke-linejoin="round" stroke-miterlimit="10" fill="none" fill-rule="evenodd"/><path d="M151 449.5C151 437.074 161.074 427 173.5 427 185.926 427 196 437.074 196 449.5 196 461.926 185.926 472 173.5 472 161.074 472 151 461.926 151 449.5ZM164.992 449.5C164.992 454.199 168.801 458.008 173.5 458.008 178.199 458.008 182.008 454.199 182.008 449.5 182.008 444.801 178.199 440.992 173.5 440.992 168.801 440.992 164.992 444.801 164.992 449.5Z" fill-rule="evenodd"/><path d="M219.5 397.5 355.563 397.5" stroke="#000000" stroke-width="13.3333" stroke-linecap="round" stroke-linejoin="round" stroke-miterlimit="10" fill="none" fill-rule="evenodd"/><path d="M151 396.5C151 384.074 161.074 374 173.5 374 185.926 374 196 384.074 196 396.5 196 408.926 185.926 419 173.5 419 161.074 419 151 408.926 151 396.5Z" fill-rule="evenodd"/><path d="M219.5 503.5 355.563 503.5" stroke="#000000" stroke-width="13.3333" stroke-linecap="round" stroke-linejoin="round" stroke-miterlimit="10" fill="none" fill-rule="evenodd"/><path d="M151 502.5C151 490.074 161.074 480 173.5 480 185.926 480 196 490.074 196 502.5 196 514.926 185.926 525 173.5 525 161.074 525 151 514.926 151 502.5ZM164.992 502.5C164.992 507.199 168.801 511.008 173.5 511.008 178.199 511.008 182.008 507.199 182.008 502.5 182.008 497.801 178.199 493.992 173.5 493.992 168.801 493.992 164.992 497.801 164.992 502.5Z" fill-rule="evenodd"/></g></svg>