<svg width="243" height="243" xmlns="http://www.w3.org/2000/svg" xmlns:xlink="http://www.w3.org/1999/xlink" overflow="hidden"><g transform="translate(-491 -302)"><path d="M506.5 351.138C506.5 341.397 514.397 333.5 524.138 333.5L700.862 333.5C710.603 333.5 718.5 341.397 718.5 351.138L718.5 496.862C718.5 506.603 710.603 514.5 700.862 514.5L524.138 514.5C514.397 514.5 506.5 506.603 506.5 496.862Z" stroke="#000000" stroke-width="13.3333" stroke-miterlimit="8" fill="none" fill-rule="evenodd"/><g><g><g><path d="M558.178 471.452 567.077 444.999 599.854 444.999 608.763 471.452 620.616 471.452 589.284 383.391 577.789 383.391 546.438 471.452 558.178 471.452ZM583.659 396.679 596.834 435.901 570.126 435.901 583.338 396.679 583.659 396.679ZM669.974 462.996 670.305 462.996 670.305 471.452 680.95 471.452 680.95 424.68C680.95 410.429 670.437 402.549 655.979 402.549 639.595 402.549 631.535 411.194 630.818 423.066L641.275 423.066C641.917 416.29 646.89 411.835 655.592 411.835 664.755 411.835 669.918 416.743 669.918 425.652L669.918 432.551 652.043 432.551C636.5 432.617 628.242 440.101 628.242 451.973 628.242 464.421 637.273 472.547 650.373 472.547 660.376 472.547 666.567 468.489 669.984 463.005ZM653.336 463.326C646.239 463.326 639.595 459.58 639.595 451.586 639.595 445.452 643.597 441.063 652.883 441.063L669.918 441.063 669.918 448.934C669.918 457.39 662.821 463.326 653.336 463.326Z" stroke="#000000" stroke-width="1.33333"/></g></g></g></g></svg>