<svg width="244" height="243" xmlns="http://www.w3.org/2000/svg" xmlns:xlink="http://www.w3.org/1999/xlink" overflow="hidden"><defs><linearGradient x1="1293.83" y1="462" x2="1428.17" y2="462" gradientUnits="userSpaceOnUse" spreadMethod="reflect" id="stroke0"><stop offset="0" stop-color="#000000" stop-opacity="0"/><stop offset="0.39" stop-color="#000000" stop-opacity="0"/><stop offset="0.4"/><stop offset="1"/></linearGradient><linearGradient x1="1361" y1="394.833" x2="1361" y2="529.167" gradientUnits="userSpaceOnUse" spreadMethod="reflect" id="stroke1"><stop offset="0" stop-color="#000000" stop-opacity="0"/><stop offset="0.39" stop-color="#000000" stop-opacity="0"/><stop offset="0.4"/><stop offset="1"/></linearGradient></defs><g transform="translate(-1201 -302)"><path d="M1263.5 386C1263.5 373.574 1273.8 363.5 1286.5 363.5 1299.2 363.5 1309.5 373.574 1309.5 386 1309.5 398.426 1299.2 408.5 1286.5 408.5 1273.8 408.5 1263.5 398.426 1263.5 386Z" stroke="#000000" stroke-width="13.3333" stroke-miterlimit="8" fill="none" fill-rule="evenodd"/><path d="M1340.5 442.5 1378.3 480.295" stroke="#000000" stroke-width="13.3333" stroke-linecap="round" stroke-linejoin="round" stroke-miterlimit="10" fill="none" fill-rule="evenodd"/><path d="M0 0 37.7953 37.7953" stroke="#000000" stroke-width="13.3333" stroke-linecap="round" stroke-linejoin="round" stroke-miterlimit="10" fill="none" fill-rule="evenodd" transform="matrix(1 0 0 -1 1342.5 480.295)"/><path d="M1225.5 346.375C1225.5 334.846 1234.85 325.5 1246.38 325.5L1324.62 325.5C1336.15 325.5 1345.5 334.846 1345.5 346.375L1345.5 425.625C1345.5 437.154 1336.15 446.5 1324.62 446.5L1246.38 446.5C1234.85 446.5 1225.5 437.154 1225.5 425.625Z" stroke="#000000" stroke-width="13.3333" stroke-miterlimit="8" fill="none" fill-rule="evenodd"/><path d="M1300.5 422.549C1300.5 410.924 1309.92 401.5 1321.55 401.5L1400.45 401.5C1412.08 401.5 1421.5 410.924 1421.5 422.549L1421.5 501.451C1421.5 513.076 1412.08 522.5 1400.45 522.5L1321.55 522.5C1309.92 522.5 1300.5 513.076 1300.5 501.451Z" stroke="url(#stroke0)" stroke-width="13.3333" stroke-miterlimit="8" fill="none" fill-rule="evenodd"/><path d="M1400.45 401.5C1412.08 401.5 1421.5 410.924 1421.5 422.549L1421.5 501.451C1421.5 513.076 1412.08 522.5 1400.45 522.5L1321.55 522.5C1309.92 522.5 1300.5 513.076 1300.5 501.451L1300.5 422.549C1300.5 410.924 1309.92 401.5 1321.55 401.5Z" stroke="url(#stroke1)" stroke-width="13.3333" stroke-miterlimit="8" fill="none" fill-rule="evenodd"/></g></svg>