<svg width="424" height="424" xmlns="http://www.w3.org/2000/svg" xmlns:xlink="http://www.w3.org/1999/xlink" overflow="hidden"><g transform="translate(-1882 -219)"><g><g><g><path d="M25.5 119C25.5 119 17 119 17 110.5 17 102 25.5 76.5 68 76.5 110.5 76.5 119 102 119 110.5 119 119 110.5 119 110.5 119L25.5 119ZM68 68C82.0832 68 93.5 56.5832 93.5 42.5 93.5 28.4168 82.0832 17 68 17 53.9168 17 42.5 28.4168 42.5 42.5 42.5 56.5832 53.9168 68 68 68Z" transform="matrix(1 0 0 1.00735 1950 370)"/></g></g></g><g><g><g><path d="M2126.69 489.875C2126.69 489.875 2118.12 489.875 2118.12 481.312 2118.12 472.75 2126.69 447.062 2169.5 447.062 2212.31 447.062 2220.88 472.75 2220.88 481.312 2220.88 489.875 2212.31 489.875 2212.31 489.875L2126.69 489.875ZM2169.5 438.5C2183.69 438.5 2195.19 426.999 2195.19 412.812 2195.19 398.626 2183.69 387.125 2169.5 387.125 2155.31 387.125 2143.81 398.626 2143.81 412.812 2143.81 426.999 2155.31 438.5 2169.5 438.5Z"/></g></g></g><g><g><g><path d="M1975.5 618C1975.5 618 1967 618 1967 609.5 1967 601 1975.5 575.5 2018 575.5 2060.5 575.5 2069 601 2069 609.5 2069 618 2060.5 618 2060.5 618L1975.5 618ZM2018 567C2032.08 567 2043.5 555.583 2043.5 541.5 2043.5 527.417 2032.08 516 2018 516 2003.92 516 1992.5 527.417 1992.5 541.5 1992.5 555.583 2003.92 567 2018 567Z"/></g></g></g><g><g><g><path d="M25.5 119C25.5 119 17 119 17 110.5 17 102 25.5 76.5 68 76.5 110.5 76.5 119 102 119 110.5 119 119 110.5 119 110.5 119L25.5 119ZM68 68C82.0832 68 93.5 56.5832 93.5 42.5 93.5 28.4168 82.0832 17 68 17 53.9168 17 42.5 28.4168 42.5 42.5 42.5 56.5832 53.9168 68 68 68Z" transform="matrix(1.00735 0 0 1 2101 499)"/></g></g></g><g><g><g><path d="M2054.25 255.25 2067.5 255.25 2067.5 268.5 2054.25 268.5 2054.25 255.25Z"/><path d="M2080.75 242 2080.75 281.75 2041 281.75 2041 242 2080.75 242ZM2074.12 248.625 2047.62 248.625 2047.62 275.125 2074.12 275.125 2074.12 248.625ZM2067.5 321.5 2054.25 321.5 2054.25 334.75 2067.5 334.75 2067.5 321.5Z"/><path d="M2080.75 308.25 2080.75 348 2041 348 2041 308.25 2080.75 308.25ZM2047.62 314.875 2047.62 341.375 2074.12 341.375 2074.12 314.875 2047.62 314.875ZM2120.5 255.25 2133.75 255.25 2133.75 268.5 2120.5 268.5 2120.5 255.25Z"/><path d="M2107.25 242 2107.25 281.75 2147 281.75 2147 242 2107.25 242ZM2140.38 248.625 2140.38 275.125 2113.88 275.125 2113.88 248.625 2140.38 248.625ZM2094 248.625 2094 242 2100.62 242 2100.62 255.25 2094 255.25 2094 268.5 2087.38 268.5 2087.38 248.625 2094 248.625ZM2094 281.75 2094 268.5 2100.62 268.5 2100.62 281.75 2094 281.75ZM2080.75 295 2080.75 288.375 2087.38 288.375 2087.38 281.75 2094 281.75 2094 295 2100.62 295 2100.62 288.375 2133.75 288.375 2133.75 295 2107.25 295 2107.25 301.625 2087.38 301.625 2087.38 295 2080.75 295ZM2080.75 295 2080.75 301.625 2054.25 301.625 2054.25 295 2047.62 295 2047.62 301.625 2041 301.625 2041 288.375 2060.88 288.375 2060.88 295 2080.75 295ZM2147 301.625 2140.38 301.625 2140.38 288.375 2147 288.375 2147 301.625ZM2140.38 301.625 2133.75 301.625 2133.75 314.875 2147 314.875 2147 308.25 2140.38 308.25 2140.38 301.625ZM2113.88 301.625 2127.12 301.625 2127.12 308.25 2120.5 308.25 2120.5 314.875 2113.88 314.875 2113.88 301.625ZM2127.12 321.5 2127.12 314.875 2120.5 314.875 2120.5 321.5 2113.88 321.5 2113.88 328.125 2100.62 328.125 2100.62 334.75 2120.5 334.75 2120.5 321.5 2127.12 321.5ZM2127.12 321.5 2147 321.5 2147 328.125 2133.75 328.125 2133.75 334.75 2127.12 334.75 2127.12 321.5ZM2100.62 314.875 2100.62 321.5 2107.25 321.5 2107.25 308.25 2087.38 308.25 2087.38 314.875 2100.62 314.875Z"/><path d="M2087.38 321.5 2094 321.5 2094 341.375 2120.5 341.375 2120.5 348 2087.38 348 2087.38 321.5ZM2147 334.75 2147 348 2127.12 348 2127.12 341.375 2140.38 341.375 2140.38 334.75 2147 334.75Z"/></g></g></g></g></svg>