<svg width="1455" height="1455" xmlns="http://www.w3.org/2000/svg" xmlns:xlink="http://www.w3.org/1999/xlink" xml:space="preserve" overflow="hidden"><g transform="translate(-2442 -1949)"><g><g><g><path d="M92.4375 431.375C92.4375 431.375 61.625 431.375 61.625 400.562 61.625 369.75 92.4375 277.312 246.5 277.312 400.562 277.312 431.375 369.75 431.375 400.562 431.375 431.375 400.562 431.375 400.562 431.375L92.4375 431.375ZM246.5 246.5C297.552 246.5 338.937 205.114 338.937 154.062 338.937 103.011 297.552 61.625 246.5 61.625 195.448 61.625 154.062 103.011 154.062 154.062 154.062 205.114 195.448 246.5 246.5 246.5Z" transform="matrix(1 0 0 1.00203 2598 1975)"/></g></g></g><g><g><g><path d="M92.4375 431.375C92.4375 431.375 61.625 431.375 61.625 400.562 61.625 369.75 92.4375 277.312 246.5 277.312 400.562 277.312 431.375 369.75 431.375 400.562 431.375 431.375 400.562 431.375 400.562 431.375L92.4375 431.375ZM246.5 246.5C297.552 246.5 338.937 205.114 338.937 154.062 338.937 103.011 297.552 61.625 246.5 61.625 195.448 61.625 154.062 103.011 154.062 154.062 154.062 205.114 195.448 246.5 246.5 246.5Z" transform="matrix(1 0 0 1.00203 3248 1975)"/></g></g></g><path d="M2572 2462.98C2572 2451.95 2580.95 2443 2591.98 2443L3097.02 2443C3108.05 2443 3117 2451.95 3117 2462.98L3117 2579.02C3117 2590.05 3108.05 2599 3097.02 2599L2591.98 2599C2580.95 2599 2572 2590.05 2572 2579.02Z" stroke="#000000" stroke-width="13.75" stroke-miterlimit="8" fill="none" fill-rule="evenodd"/><g><g><g><path d="M26 0C27.7949 -7.21644e-16 29.2499 1.45507 29.2499 3.24999L29.2499 20.371 44.0764 11.8105C45.6249 10.9027 47.616 11.4221 48.5238 12.9705 49.4316 14.519 48.9122 16.5101 47.3638 17.4179 47.3514 17.4252 47.3389 17.4324 47.3264 17.4395L32.4999 26 47.3264 34.5604C48.8868 35.4476 49.4325 37.4317 48.5454 38.992 47.6582 40.5524 45.6741 41.0981 44.1138 40.211 44.1013 40.2039 44.0888 40.1967 44.0764 40.1894L29.2499 31.6289 29.2499 48.7499C29.2499 50.5448 27.7949 51.9999 26 51.9999 24.205 51.9999 22.75 50.5448 22.75 48.7499L22.75 31.6289 7.92348 40.1894C6.37504 41.0972 4.38387 40.5778 3.4761 39.0294 2.56833 37.4809 3.0877 35.4898 4.63615 34.582 4.64855 34.5747 4.661 34.5675 4.67349 34.5604L19.5 26 4.67349 17.4395C3.12504 16.5317 2.60567 14.5405 3.51344 12.9921 4.41271 11.4581 6.37775 10.9316 7.92348 11.8105L22.75 20.371 22.75 3.24999C22.75 1.45507 24.205 -3.60822e-16 26 -3.60822e-16Z" transform="matrix(1.00001 0 0 1 2624 2495)"/></g></g></g><g><g><g><path d="M26 0C27.7949 -7.21644e-16 29.2499 1.45507 29.2499 3.24999L29.2499 20.371 44.0764 11.8105C45.6249 10.9027 47.616 11.4221 48.5238 12.9705 49.4316 14.519 48.9122 16.5101 47.3638 17.4179 47.3514 17.4252 47.3389 17.4324 47.3264 17.4395L32.4999 26 47.3264 34.5604C48.8868 35.4476 49.4325 37.4317 48.5454 38.992 47.6582 40.5524 45.6741 41.0981 44.1138 40.211 44.1013 40.2039 44.0888 40.1967 44.0764 40.1894L29.2499 31.6289 29.2499 48.7499C29.2499 50.5448 27.7949 51.9999 26 51.9999 24.205 51.9999 22.75 50.5448 22.75 48.7499L22.75 31.6289 7.92348 40.1894C6.37504 41.0972 4.38387 40.5778 3.4761 39.0294 2.56833 37.4809 3.0877 35.4898 4.63615 34.582 4.64855 34.5747 4.661 34.5675 4.67349 34.5604L19.5 26 4.67349 17.4395C3.12504 16.5317 2.60567 14.5405 3.51344 12.9921 4.41271 11.4581 6.37775 10.9316 7.92348 11.8105L22.75 20.371 22.75 3.24999C22.75 1.45507 24.205 -3.60822e-16 26 -3.60822e-16Z" transform="matrix(1.00001 0 0 1 2702 2495)"/></g></g></g><g><g><g><path d="M26 0C27.7949 -7.21644e-16 29.2499 1.45507 29.2499 3.24999L29.2499 20.371 44.0764 11.8105C45.6249 10.9027 47.616 11.4221 48.5238 12.9705 49.4316 14.519 48.9122 16.5101 47.3638 17.4179 47.3514 17.4252 47.3389 17.4324 47.3264 17.4395L32.4999 26 47.3264 34.5604C48.8868 35.4476 49.4325 37.4317 48.5454 38.992 47.6582 40.5524 45.6741 41.0981 44.1138 40.211 44.1013 40.2039 44.0888 40.1967 44.0764 40.1894L29.2499 31.6289 29.2499 48.7499C29.2499 50.5448 27.7949 51.9999 26 51.9999 24.205 51.9999 22.75 50.5448 22.75 48.7499L22.75 31.6289 7.92348 40.1894C6.37504 41.0972 4.38387 40.5778 3.4761 39.0294 2.56833 37.4809 3.0877 35.4898 4.63615 34.582 4.64855 34.5747 4.661 34.5675 4.67349 34.5604L19.5 26 4.67349 17.4395C3.12504 16.5317 2.60567 14.5405 3.51344 12.9921 4.41271 11.4581 6.37775 10.9316 7.92348 11.8105L22.75 20.371 22.75 3.24999C22.75 1.45507 24.205 -3.60822e-16 26 -3.60822e-16Z" transform="matrix(1.00001 0 0 1 2780 2495)"/></g></g></g><g><g><g><path d="M2884 2495C2885.79 2495 2887.25 2496.46 2887.25 2498.25L2887.25 2515.37 2902.08 2506.81C2903.62 2505.9 2905.62 2506.42 2906.52 2507.97 2907.43 2509.52 2906.91 2511.51 2905.36 2512.42 2905.35 2512.43 2905.34 2512.43 2905.33 2512.44L2890.5 2521 2905.33 2529.56C2906.89 2530.45 2907.43 2532.43 2906.55 2533.99 2905.66 2535.55 2903.67 2536.1 2902.11 2535.21 2902.1 2535.2 2902.09 2535.2 2902.08 2535.19L2887.25 2526.63 2887.25 2543.75C2887.25 2545.54 2885.79 2547 2884 2547 2882.21 2547 2880.75 2545.54 2880.75 2543.75L2880.75 2526.63 2865.92 2535.19C2864.38 2536.1 2862.38 2535.58 2861.48 2534.03 2860.57 2532.48 2861.09 2530.49 2862.64 2529.58 2862.65 2529.57 2862.66 2529.57 2862.67 2529.56L2877.5 2521 2862.67 2512.44C2861.12 2511.53 2860.61 2509.54 2861.51 2507.99 2862.41 2506.46 2864.38 2505.93 2865.92 2506.81L2880.75 2515.37 2880.75 2498.25C2880.75 2496.46 2882.21 2495 2884 2495Z"/></g></g></g><g><g><g><path d="M2962 2495C2963.79 2495 2965.25 2496.46 2965.25 2498.25L2965.25 2515.37 2980.08 2506.81C2981.62 2505.9 2983.62 2506.42 2984.52 2507.97 2985.43 2509.52 2984.91 2511.51 2983.36 2512.42 2983.35 2512.43 2983.34 2512.43 2983.33 2512.44L2968.5 2521 2983.33 2529.56C2984.89 2530.45 2985.43 2532.43 2984.55 2533.99 2983.66 2535.55 2981.67 2536.1 2980.11 2535.21 2980.1 2535.2 2980.09 2535.2 2980.08 2535.19L2965.25 2526.63 2965.25 2543.75C2965.25 2545.54 2963.79 2547 2962 2547 2960.21 2547 2958.75 2545.54 2958.75 2543.75L2958.75 2526.63 2943.92 2535.19C2942.38 2536.1 2940.38 2535.58 2939.48 2534.03 2938.57 2532.48 2939.09 2530.49 2940.64 2529.58 2940.65 2529.57 2940.66 2529.57 2940.67 2529.56L2955.5 2521 2940.67 2512.44C2939.12 2511.53 2938.61 2509.54 2939.51 2507.99 2940.41 2506.46 2942.38 2505.93 2943.92 2506.81L2958.75 2515.37 2958.75 2498.25C2958.75 2496.46 2960.21 2495 2962 2495Z"/></g></g></g><g><g><g><path d="M3040 2495C3041.79 2495 3043.25 2496.46 3043.25 2498.25L3043.25 2515.37 3058.08 2506.81C3059.62 2505.9 3061.62 2506.42 3062.52 2507.97 3063.43 2509.52 3062.91 2511.51 3061.36 2512.42 3061.35 2512.43 3061.34 2512.43 3061.33 2512.44L3046.5 2521 3061.33 2529.56C3062.89 2530.45 3063.43 2532.43 3062.55 2533.99 3061.66 2535.55 3059.67 2536.1 3058.11 2535.21 3058.1 2535.2 3058.09 2535.2 3058.08 2535.19L3043.25 2526.63 3043.25 2543.75C3043.25 2545.54 3041.79 2547 3040 2547 3038.21 2547 3036.75 2545.54 3036.75 2543.75L3036.75 2526.63 3021.92 2535.19C3020.38 2536.1 3018.38 2535.58 3017.48 2534.03 3016.57 2532.48 3017.09 2530.49 3018.64 2529.58 3018.65 2529.57 3018.66 2529.57 3018.67 2529.56L3033.5 2521 3018.67 2512.44C3017.12 2511.53 3016.61 2509.54 3017.51 2507.99 3018.41 2506.46 3020.38 2505.93 3021.92 2506.81L3036.75 2515.37 3036.75 2498.25C3036.75 2496.46 3038.21 2495 3040 2495Z"/></g></g></g><path d="M3222 2462.85C3222 2451.89 3230.89 2443 3241.85 2443L3747.15 2443C3758.11 2443 3767 2451.89 3767 2462.85L3767 2578.15C3767 2589.11 3758.11 2598 3747.15 2598L3241.85 2598C3230.89 2598 3222 2589.11 3222 2578.15Z" stroke="#000000" stroke-width="13.75" stroke-miterlimit="8" fill="none" fill-rule="evenodd"/><g><g><g><path d="M25.5001 0C27.2605 -7.0777e-16 28.6876 1.4271 28.6876 3.18751L28.6876 19.9793 43.2291 11.5834C44.7478 10.6931 46.7006 11.2025 47.591 12.7212 48.4813 14.2399 47.9719 16.1927 46.4532 17.0831 46.441 17.0902 46.4288 17.0972 46.4166 17.1042L31.8751 25.5001 46.4166 33.896C47.9469 34.7661 48.4822 36.7121 47.6121 38.2424 46.742 39.7728 44.796 40.308 43.2657 39.4379 43.2534 39.431 43.2412 39.4239 43.2291 39.4168L28.6876 31.0209 28.6876 47.8127C28.6876 49.5731 27.2605 51.0002 25.5001 51.0002 23.7397 51.0002 22.3126 49.5731 22.3126 47.8127L22.3126 31.0209 7.77116 39.4168C6.25248 40.3071 4.2996 39.7977 3.40928 38.2791 2.51896 36.7604 3.02834 34.8075 4.54702 33.9172 4.55918 33.91 4.57139 33.903 4.58365 33.896L19.1251 25.5001 4.58365 17.1042C3.06496 16.2139 2.55558 14.261 3.4459 12.7423 4.32788 11.2379 6.25514 10.7215 7.77116 11.5834L22.3126 19.9793 22.3126 3.18751C22.3126 1.4271 23.7397 -3.53885e-16 25.5001 -3.53885e-16Z" transform="matrix(1 0 0 1.0196 3274 2495)"/></g></g></g><g><g><g><path d="M26 0C27.7949 -7.21644e-16 29.2499 1.45507 29.2499 3.24999L29.2499 20.371 44.0764 11.8105C45.6249 10.9027 47.616 11.4221 48.5238 12.9705 49.4316 14.519 48.9122 16.5101 47.3638 17.4179 47.3514 17.4252 47.3389 17.4324 47.3264 17.4395L32.4999 26 47.3264 34.5604C48.8868 35.4476 49.4325 37.4317 48.5454 38.992 47.6582 40.5524 45.6741 41.0981 44.1138 40.211 44.1013 40.2039 44.0888 40.1967 44.0764 40.1894L29.2499 31.6289 29.2499 48.7499C29.2499 50.5448 27.7949 51.9999 26 51.9999 24.205 51.9999 22.75 50.5448 22.75 48.7499L22.75 31.6289 7.92348 40.1894C6.37504 41.0972 4.38387 40.5778 3.4761 39.0294 2.56833 37.4809 3.0877 35.4898 4.63615 34.582 4.64855 34.5747 4.661 34.5675 4.67349 34.5604L19.5 26 4.67349 17.4395C3.12504 16.5317 2.60567 14.5405 3.51344 12.9921 4.41271 11.4581 6.37775 10.9316 7.92348 11.8105L22.75 20.371 22.75 3.24999C22.75 1.45507 24.205 -3.60822e-16 26 -3.60822e-16Z" transform="matrix(1.00001 0 0 1 3351 2495)"/></g></g></g><g><g><g><path d="M26 0C27.7949 -7.21644e-16 29.2499 1.45507 29.2499 3.24999L29.2499 20.371 44.0764 11.8105C45.6249 10.9027 47.616 11.4221 48.5238 12.9705 49.4316 14.519 48.9122 16.5101 47.3638 17.4179 47.3514 17.4252 47.3389 17.4324 47.3264 17.4395L32.4999 26 47.3264 34.5604C48.8868 35.4476 49.4325 37.4317 48.5454 38.992 47.6582 40.5524 45.6741 41.0981 44.1138 40.211 44.1013 40.2039 44.0888 40.1967 44.0764 40.1894L29.2499 31.6289 29.2499 48.7499C29.2499 50.5448 27.7949 51.9999 26 51.9999 24.205 51.9999 22.75 50.5448 22.75 48.7499L22.75 31.6289 7.92348 40.1894C6.37504 41.0972 4.38387 40.5778 3.4761 39.0294 2.56833 37.4809 3.0877 35.4898 4.63615 34.582 4.64855 34.5747 4.661 34.5675 4.67349 34.5604L19.5 26 4.67349 17.4395C3.12504 16.5317 2.60567 14.5405 3.51344 12.9921 4.41271 11.4581 6.37775 10.9316 7.92348 11.8105L22.75 20.371 22.75 3.24999C22.75 1.45507 24.205 -3.60822e-16 26 -3.60822e-16Z" transform="matrix(1.00001 0 0 1 3429 2495)"/></g></g></g><g><g><g><path d="M3533 2495C3534.79 2495 3536.25 2496.46 3536.25 2498.25L3536.25 2515.37 3551.08 2506.81C3552.62 2505.9 3554.62 2506.42 3555.52 2507.97 3556.43 2509.52 3555.91 2511.51 3554.36 2512.42 3554.35 2512.43 3554.34 2512.43 3554.33 2512.44L3539.5 2521 3554.33 2529.56C3555.89 2530.45 3556.43 2532.43 3555.55 2533.99 3554.66 2535.55 3552.67 2536.1 3551.11 2535.21 3551.1 2535.2 3551.09 2535.2 3551.08 2535.19L3536.25 2526.63 3536.25 2543.75C3536.25 2545.54 3534.79 2547 3533 2547 3531.21 2547 3529.75 2545.54 3529.75 2543.75L3529.75 2526.63 3514.92 2535.19C3513.38 2536.1 3511.38 2535.58 3510.48 2534.03 3509.57 2532.48 3510.09 2530.49 3511.64 2529.58 3511.65 2529.57 3511.66 2529.57 3511.67 2529.56L3526.5 2521 3511.67 2512.44C3510.12 2511.53 3509.61 2509.54 3510.51 2507.99 3511.41 2506.46 3513.38 2505.93 3514.92 2506.81L3529.75 2515.37 3529.75 2498.25C3529.75 2496.46 3531.21 2495 3533 2495Z"/></g></g></g><g><g><g><path d="M3611 2495C3612.79 2495 3614.25 2496.46 3614.25 2498.25L3614.25 2515.37 3629.08 2506.81C3630.62 2505.9 3632.62 2506.42 3633.52 2507.97 3634.43 2509.52 3633.91 2511.51 3632.36 2512.42 3632.35 2512.43 3632.34 2512.43 3632.33 2512.44L3617.5 2521 3632.33 2529.56C3633.89 2530.45 3634.43 2532.43 3633.55 2533.99 3632.66 2535.55 3630.67 2536.1 3629.11 2535.21 3629.1 2535.2 3629.09 2535.2 3629.08 2535.19L3614.25 2526.63 3614.25 2543.75C3614.25 2545.54 3612.79 2547 3611 2547 3609.21 2547 3607.75 2545.54 3607.75 2543.75L3607.75 2526.63 3592.92 2535.19C3591.38 2536.1 3589.38 2535.58 3588.48 2534.03 3587.57 2532.48 3588.09 2530.49 3589.64 2529.58 3589.65 2529.57 3589.66 2529.57 3589.67 2529.56L3604.5 2521 3589.67 2512.44C3588.12 2511.53 3587.61 2509.54 3588.51 2507.99 3589.41 2506.46 3591.38 2505.93 3592.92 2506.81L3607.75 2515.37 3607.75 2498.25C3607.75 2496.46 3609.21 2495 3611 2495Z"/></g></g></g><g><g><g><path d="M3689 2495C3690.79 2495 3692.25 2496.46 3692.25 2498.25L3692.25 2515.37 3707.08 2506.81C3708.62 2505.9 3710.62 2506.42 3711.52 2507.97 3712.43 2509.52 3711.91 2511.51 3710.36 2512.42 3710.35 2512.43 3710.34 2512.43 3710.33 2512.44L3695.5 2521 3710.33 2529.56C3711.89 2530.45 3712.43 2532.43 3711.55 2533.99 3710.66 2535.55 3708.67 2536.1 3707.11 2535.21 3707.1 2535.2 3707.09 2535.2 3707.08 2535.19L3692.25 2526.63 3692.25 2543.75C3692.25 2545.54 3690.79 2547 3689 2547 3687.21 2547 3685.75 2545.54 3685.75 2543.75L3685.75 2526.63 3670.92 2535.19C3669.38 2536.1 3667.38 2535.58 3666.48 2534.03 3665.57 2532.48 3666.09 2530.49 3667.64 2529.58 3667.65 2529.57 3667.66 2529.57 3667.67 2529.56L3682.5 2521 3667.67 2512.44C3666.12 2511.53 3665.61 2509.54 3666.51 2507.99 3667.41 2506.46 3669.38 2505.93 3670.92 2506.81L3685.75 2515.37 3685.75 2498.25C3685.75 2496.46 3687.21 2495 3689 2495Z"/></g></g></g><g><g><g><path d="M2690.44 3108.38C2690.44 3108.38 2659.62 3108.38 2659.62 3077.56 2659.62 3046.75 2690.44 2954.31 2844.5 2954.31 2998.56 2954.31 3029.38 3046.75 3029.38 3077.56 3029.38 3108.38 2998.56 3108.38 2998.56 3108.38L2690.44 3108.38ZM2844.5 2923.5C2895.55 2923.5 2936.94 2882.11 2936.94 2831.06 2936.94 2780.01 2895.55 2738.63 2844.5 2738.63 2793.45 2738.63 2752.06 2780.01 2752.06 2831.06 2752.06 2882.11 2793.45 2923.5 2844.5 2923.5Z"/></g></g></g><g><g><g><path d="M92.4375 431.375C92.4375 431.375 61.625 431.375 61.625 400.562 61.625 369.75 92.4375 277.312 246.5 277.312 400.562 277.312 431.375 369.75 431.375 400.562 431.375 431.375 400.562 431.375 400.562 431.375L92.4375 431.375ZM246.5 246.5C297.552 246.5 338.937 205.114 338.937 154.062 338.937 103.011 297.552 61.625 246.5 61.625 195.448 61.625 154.062 103.011 154.062 154.062 154.062 205.114 195.448 246.5 246.5 246.5Z" transform="matrix(1 0 0 1.00203 3248 2676)"/></g></g></g><path d="M2572 3163.98C2572 3152.95 2580.95 3144 2591.98 3144L3097.02 3144C3108.05 3144 3117 3152.95 3117 3163.98L3117 3280.02C3117 3291.05 3108.05 3300 3097.02 3300L2591.98 3300C2580.95 3300 2572 3291.05 2572 3280.02Z" stroke="#000000" stroke-width="13.75" stroke-miterlimit="8" fill="none" fill-rule="evenodd"/><g><g><g><path d="M2650 3196C2651.79 3196 2653.25 3197.45 2653.25 3199.25L2653.25 3216.37 2668.08 3207.81C2669.62 3206.9 2671.62 3207.42 2672.52 3208.97 2673.43 3210.52 2672.91 3212.51 2671.36 3213.42 2671.35 3213.43 2671.34 3213.43 2671.33 3213.44L2656.5 3222 2671.33 3230.56C2672.89 3231.45 2673.43 3233.43 2672.55 3234.99 2671.66 3236.55 2669.67 3237.1 2668.11 3236.21 2668.1 3236.2 2668.09 3236.2 2668.08 3236.19L2653.25 3227.63 2653.25 3244.75C2653.25 3246.54 2651.79 3248 2650 3248 2648.2 3248 2646.75 3246.54 2646.75 3244.75L2646.75 3227.63 2631.92 3236.19C2630.37 3237.1 2628.38 3236.58 2627.48 3235.03 2626.57 3233.48 2627.09 3231.49 2628.64 3230.58 2628.65 3230.57 2628.66 3230.57 2628.67 3230.56L2643.5 3222 2628.67 3213.44C2627.12 3212.53 2626.61 3210.54 2627.51 3208.99 2628.41 3207.46 2630.38 3206.93 2631.92 3207.81L2646.75 3216.37 2646.75 3199.25C2646.75 3197.45 2648.2 3196 2650 3196Z"/></g></g></g><g><g><g><path d="M2728 3196C2729.79 3196 2731.25 3197.45 2731.25 3199.25L2731.25 3216.37 2746.08 3207.81C2747.62 3206.9 2749.62 3207.42 2750.52 3208.97 2751.43 3210.52 2750.91 3212.51 2749.36 3213.42 2749.35 3213.43 2749.34 3213.43 2749.33 3213.44L2734.5 3222 2749.33 3230.56C2750.89 3231.45 2751.43 3233.43 2750.55 3234.99 2749.66 3236.55 2747.67 3237.1 2746.11 3236.21 2746.1 3236.2 2746.09 3236.2 2746.08 3236.19L2731.25 3227.63 2731.25 3244.75C2731.25 3246.54 2729.79 3248 2728 3248 2726.2 3248 2724.75 3246.54 2724.75 3244.75L2724.75 3227.63 2709.92 3236.19C2708.37 3237.1 2706.38 3236.58 2705.48 3235.03 2704.57 3233.48 2705.09 3231.49 2706.64 3230.58 2706.65 3230.57 2706.66 3230.57 2706.67 3230.56L2721.5 3222 2706.67 3213.44C2705.12 3212.53 2704.61 3210.54 2705.51 3208.99 2706.41 3207.46 2708.38 3206.93 2709.92 3207.81L2724.75 3216.37 2724.75 3199.25C2724.75 3197.45 2726.2 3196 2728 3196Z"/></g></g></g><g><g><g><path d="M2806 3196C2807.8 3196 2809.25 3197.45 2809.25 3199.25L2809.25 3216.37 2824.08 3207.81C2825.63 3206.9 2827.62 3207.42 2828.52 3208.97 2829.43 3210.52 2828.91 3212.51 2827.36 3213.42 2827.35 3213.43 2827.34 3213.43 2827.33 3213.44L2812.5 3222 2827.33 3230.56C2828.89 3231.45 2829.43 3233.43 2828.55 3234.99 2827.66 3236.55 2825.67 3237.1 2824.11 3236.21 2824.1 3236.2 2824.09 3236.2 2824.08 3236.19L2809.25 3227.63 2809.25 3244.75C2809.25 3246.54 2807.8 3248 2806 3248 2804.21 3248 2802.75 3246.54 2802.75 3244.75L2802.75 3227.63 2787.92 3236.19C2786.38 3237.1 2784.38 3236.58 2783.48 3235.03 2782.57 3233.48 2783.09 3231.49 2784.64 3230.58 2784.65 3230.57 2784.66 3230.57 2784.67 3230.56L2799.5 3222 2784.67 3213.44C2783.12 3212.53 2782.61 3210.54 2783.51 3208.99 2784.41 3207.46 2786.38 3206.93 2787.92 3207.81L2802.75 3216.37 2802.75 3199.25C2802.75 3197.45 2804.21 3196 2806 3196Z"/></g></g></g><g><g><g><path d="M26 0C27.7949 -7.21644e-16 29.2499 1.45507 29.2499 3.24999L29.2499 20.371 44.0764 11.8105C45.6249 10.9027 47.616 11.4221 48.5238 12.9705 49.4316 14.519 48.9122 16.5101 47.3638 17.4179 47.3514 17.4252 47.3389 17.4324 47.3264 17.4395L32.4999 26 47.3264 34.5604C48.8868 35.4476 49.4325 37.4317 48.5454 38.992 47.6582 40.5524 45.6741 41.0981 44.1138 40.211 44.1013 40.2039 44.0888 40.1967 44.0764 40.1894L29.2499 31.6289 29.2499 48.7499C29.2499 50.5448 27.7949 51.9999 26 51.9999 24.205 51.9999 22.75 50.5448 22.75 48.7499L22.75 31.6289 7.92348 40.1894C6.37504 41.0972 4.38387 40.5778 3.4761 39.0294 2.56833 37.4809 3.0877 35.4898 4.63615 34.582 4.64855 34.5747 4.661 34.5675 4.67349 34.5604L19.5 26 4.67349 17.4395C3.12504 16.5317 2.60567 14.5405 3.51344 12.9921 4.41271 11.4581 6.37775 10.9316 7.92348 11.8105L22.75 20.371 22.75 3.24999C22.75 1.45507 24.205 -3.60822e-16 26 -3.60822e-16Z" transform="matrix(1 0 0 1.00001 2858 3196)"/></g></g></g><g><g><g><path d="M26 0C27.7949 -7.21644e-16 29.2499 1.45507 29.2499 3.24999L29.2499 20.371 44.0764 11.8105C45.6249 10.9027 47.616 11.4221 48.5238 12.9705 49.4316 14.519 48.9122 16.5101 47.3638 17.4179 47.3514 17.4252 47.3389 17.4324 47.3264 17.4395L32.4999 26 47.3264 34.5604C48.8868 35.4476 49.4325 37.4317 48.5454 38.992 47.6582 40.5524 45.6741 41.0981 44.1138 40.211 44.1013 40.2039 44.0888 40.1967 44.0764 40.1894L29.2499 31.6289 29.2499 48.7499C29.2499 50.5448 27.7949 51.9999 26 51.9999 24.205 51.9999 22.75 50.5448 22.75 48.7499L22.75 31.6289 7.92348 40.1894C6.37504 41.0972 4.38387 40.5778 3.4761 39.0294 2.56833 37.4809 3.0877 35.4898 4.63615 34.582 4.64855 34.5747 4.661 34.5675 4.67349 34.5604L19.5 26 4.67349 17.4395C3.12504 16.5317 2.60567 14.5405 3.51344 12.9921 4.41271 11.4581 6.37775 10.9316 7.92348 11.8105L22.75 20.371 22.75 3.24999C22.75 1.45507 24.205 -3.60822e-16 26 -3.60822e-16Z" transform="matrix(1 0 0 1.00001 2936 3196)"/></g></g></g><g><g><g><path d="M26 0C27.7949 -7.21644e-16 29.2499 1.45507 29.2499 3.24999L29.2499 20.371 44.0764 11.8105C45.6249 10.9027 47.616 11.4221 48.5238 12.9705 49.4316 14.519 48.9122 16.5101 47.3638 17.4179 47.3514 17.4252 47.3389 17.4324 47.3264 17.4395L32.4999 26 47.3264 34.5604C48.8868 35.4476 49.4325 37.4317 48.5454 38.992 47.6582 40.5524 45.6741 41.0981 44.1138 40.211 44.1013 40.2039 44.0888 40.1967 44.0764 40.1894L29.2499 31.6289 29.2499 48.7499C29.2499 50.5448 27.7949 51.9999 26 51.9999 24.205 51.9999 22.75 50.5448 22.75 48.7499L22.75 31.6289 7.92348 40.1894C6.37504 41.0972 4.38387 40.5778 3.4761 39.0294 2.56833 37.4809 3.0877 35.4898 4.63615 34.582 4.64855 34.5747 4.661 34.5675 4.67349 34.5604L19.5 26 4.67349 17.4395C3.12504 16.5317 2.60567 14.5405 3.51344 12.9921 4.41271 11.4581 6.37775 10.9316 7.92348 11.8105L22.75 20.371 22.75 3.24999C22.75 1.45507 24.205 -3.60822e-16 26 -3.60822e-16Z" transform="matrix(1 0 0 1.00001 3014 3196)"/></g></g></g><path d="M3222 3163.98C3222 3152.95 3230.95 3144 3241.98 3144L3747.02 3144C3758.05 3144 3767 3152.95 3767 3163.98L3767 3280.02C3767 3291.05 3758.05 3300 3747.02 3300L3241.98 3300C3230.95 3300 3222 3291.05 3222 3280.02Z" stroke="#000000" stroke-width="13.75" stroke-miterlimit="8" fill="none" fill-rule="evenodd"/><g><g><g><path d="M25.5001 0C27.2605 -7.0777e-16 28.6876 1.4271 28.6876 3.18751L28.6876 19.9793 43.2291 11.5834C44.7478 10.6931 46.7006 11.2025 47.591 12.7212 48.4813 14.2399 47.9719 16.1927 46.4532 17.0831 46.441 17.0902 46.4288 17.0972 46.4166 17.1042L31.8751 25.5001 46.4166 33.896C47.9469 34.7661 48.4822 36.7121 47.6121 38.2424 46.742 39.7728 44.796 40.308 43.2657 39.4379 43.2534 39.431 43.2412 39.4239 43.2291 39.4168L28.6876 31.0209 28.6876 47.8127C28.6876 49.5731 27.2605 51.0002 25.5001 51.0002 23.7397 51.0002 22.3126 49.5731 22.3126 47.8127L22.3126 31.0209 7.77116 39.4168C6.25248 40.3071 4.2996 39.7977 3.40928 38.2791 2.51896 36.7604 3.02834 34.8075 4.54702 33.9172 4.55918 33.91 4.57139 33.903 4.58365 33.896L19.1251 25.5001 4.58365 17.1042C3.06496 16.2139 2.55558 14.261 3.4459 12.7423 4.32788 11.2379 6.25514 10.7215 7.77116 11.5834L22.3126 19.9793 22.3126 3.18751C22.3126 1.4271 23.7397 -3.53885e-16 25.5001 -3.53885e-16Z" transform="matrix(1 0 0 1.01961 3274 3196)"/></g></g></g><g><g><g><path d="M3377 3196C3378.79 3196 3380.25 3197.45 3380.25 3199.25L3380.25 3216.37 3395.08 3207.81C3396.62 3206.9 3398.62 3207.42 3399.52 3208.97 3400.43 3210.52 3399.91 3212.51 3398.36 3213.42 3398.35 3213.43 3398.34 3213.43 3398.33 3213.44L3383.5 3222 3398.33 3230.56C3399.89 3231.45 3400.43 3233.43 3399.55 3234.99 3398.66 3236.55 3396.67 3237.1 3395.11 3236.21 3395.1 3236.2 3395.09 3236.2 3395.08 3236.19L3380.25 3227.63 3380.25 3244.75C3380.25 3246.54 3378.79 3248 3377 3248 3375.2 3248 3373.75 3246.54 3373.75 3244.75L3373.75 3227.63 3358.92 3236.19C3357.37 3237.1 3355.38 3236.58 3354.48 3235.03 3353.57 3233.48 3354.09 3231.49 3355.64 3230.58 3355.65 3230.57 3355.66 3230.57 3355.67 3230.56L3370.5 3222 3355.67 3213.44C3354.12 3212.53 3353.61 3210.54 3354.51 3208.99 3355.41 3207.46 3357.38 3206.93 3358.92 3207.81L3373.75 3216.37 3373.75 3199.25C3373.75 3197.45 3375.2 3196 3377 3196Z"/></g></g></g><g><g><g><path d="M3455 3196C3456.8 3196 3458.25 3197.45 3458.25 3199.25L3458.25 3216.37 3473.08 3207.81C3474.63 3206.9 3476.62 3207.42 3477.52 3208.97 3478.43 3210.52 3477.91 3212.51 3476.36 3213.42 3476.35 3213.43 3476.34 3213.43 3476.33 3213.44L3461.5 3222 3476.33 3230.56C3477.89 3231.45 3478.43 3233.43 3477.55 3234.99 3476.66 3236.55 3474.67 3237.1 3473.11 3236.21 3473.1 3236.2 3473.09 3236.2 3473.08 3236.19L3458.25 3227.63 3458.25 3244.75C3458.25 3246.54 3456.8 3248 3455 3248 3453.21 3248 3451.75 3246.54 3451.75 3244.75L3451.75 3227.63 3436.92 3236.19C3435.38 3237.1 3433.38 3236.58 3432.48 3235.03 3431.57 3233.48 3432.09 3231.49 3433.64 3230.58 3433.65 3230.57 3433.66 3230.57 3433.67 3230.56L3448.5 3222 3433.67 3213.44C3432.12 3212.53 3431.61 3210.54 3432.51 3208.99 3433.41 3207.46 3435.38 3206.93 3436.92 3207.81L3451.75 3216.37 3451.75 3199.25C3451.75 3197.45 3453.21 3196 3455 3196Z"/></g></g></g><g><g><g><path d="M26 0C27.7949 -7.21644e-16 29.2499 1.45507 29.2499 3.24999L29.2499 20.371 44.0764 11.8105C45.6249 10.9027 47.616 11.4221 48.5238 12.9705 49.4316 14.519 48.9122 16.5101 47.3638 17.4179 47.3514 17.4252 47.3389 17.4324 47.3264 17.4395L32.4999 26 47.3264 34.5604C48.8868 35.4476 49.4325 37.4317 48.5454 38.992 47.6582 40.5524 45.6741 41.0981 44.1138 40.211 44.1013 40.2039 44.0888 40.1967 44.0764 40.1894L29.2499 31.6289 29.2499 48.7499C29.2499 50.5448 27.7949 51.9999 26 51.9999 24.205 51.9999 22.75 50.5448 22.75 48.7499L22.75 31.6289 7.92348 40.1894C6.37504 41.0972 4.38387 40.5778 3.4761 39.0294 2.56833 37.4809 3.0877 35.4898 4.63615 34.582 4.64855 34.5747 4.661 34.5675 4.67349 34.5604L19.5 26 4.67349 17.4395C3.12504 16.5317 2.60567 14.5405 3.51344 12.9921 4.41271 11.4581 6.37775 10.9316 7.92348 11.8105L22.75 20.371 22.75 3.24999C22.75 1.45507 24.205 -3.60822e-16 26 -3.60822e-16Z" transform="matrix(1 0 0 1.00001 3507 3196)"/></g></g></g><g><g><g><path d="M26 0C27.7949 -7.21644e-16 29.2499 1.45507 29.2499 3.24999L29.2499 20.371 44.0764 11.8105C45.6249 10.9027 47.616 11.4221 48.5238 12.9705 49.4316 14.519 48.9122 16.5101 47.3638 17.4179 47.3514 17.4252 47.3389 17.4324 47.3264 17.4395L32.4999 26 47.3264 34.5604C48.8868 35.4476 49.4325 37.4317 48.5454 38.992 47.6582 40.5524 45.6741 41.0981 44.1138 40.211 44.1013 40.2039 44.0888 40.1967 44.0764 40.1894L29.2499 31.6289 29.2499 48.7499C29.2499 50.5448 27.7949 51.9999 26 51.9999 24.205 51.9999 22.75 50.5448 22.75 48.7499L22.75 31.6289 7.92348 40.1894C6.37504 41.0972 4.38387 40.5778 3.4761 39.0294 2.56833 37.4809 3.0877 35.4898 4.63615 34.582 4.64855 34.5747 4.661 34.5675 4.67349 34.5604L19.5 26 4.67349 17.4395C3.12504 16.5317 2.60567 14.5405 3.51344 12.9921 4.41271 11.4581 6.37775 10.9316 7.92348 11.8105L22.75 20.371 22.75 3.24999C22.75 1.45507 24.205 -3.60822e-16 26 -3.60822e-16Z" transform="matrix(1 0 0 1.00001 3585 3196)"/></g></g></g><g><g><g><path d="M26 0C27.7949 -7.21644e-16 29.2499 1.45507 29.2499 3.24999L29.2499 20.371 44.0764 11.8105C45.6249 10.9027 47.616 11.4221 48.5238 12.9705 49.4316 14.519 48.9122 16.5101 47.3638 17.4179 47.3514 17.4252 47.3389 17.4324 47.3264 17.4395L32.4999 26 47.3264 34.5604C48.8868 35.4476 49.4325 37.4317 48.5454 38.992 47.6582 40.5524 45.6741 41.0981 44.1138 40.211 44.1013 40.2039 44.0888 40.1967 44.0764 40.1894L29.2499 31.6289 29.2499 48.7499C29.2499 50.5448 27.7949 51.9999 26 51.9999 24.205 51.9999 22.75 50.5448 22.75 48.7499L22.75 31.6289 7.92348 40.1894C6.37504 41.0972 4.38387 40.5778 3.4761 39.0294 2.56833 37.4809 3.0877 35.4898 4.63615 34.582 4.64855 34.5747 4.661 34.5675 4.67349 34.5604L19.5 26 4.67349 17.4395C3.12504 16.5317 2.60567 14.5405 3.51344 12.9921 4.41271 11.4581 6.37775 10.9316 7.92348 11.8105L22.75 20.371 22.75 3.24999C22.75 1.45507 24.205 -3.60822e-16 26 -3.60822e-16Z" transform="matrix(1 0 0 1.00001 3663 3196)"/></g></g></g></g></svg>