<svg width="425" height="424" xmlns="http://www.w3.org/2000/svg" xmlns:xlink="http://www.w3.org/1999/xlink" overflow="hidden"><defs><clipPath id="clip0"><rect x="937" y="265" width="227" height="226"/></clipPath><clipPath id="clip1"><rect x="937" y="265" width="227" height="226"/></clipPath><clipPath id="clip2"><rect x="937" y="265" width="227" height="226"/></clipPath></defs><g transform="translate(-770 -166)"><g><g><g><path d="M26.8125 125.125C26.8125 125.125 17.875 125.125 17.875 116.188 17.875 107.25 26.8125 80.4375 71.5 80.4375 116.188 80.4375 125.125 107.25 125.125 116.188 125.125 125.125 116.188 125.125 116.188 125.125L26.8125 125.125ZM71.5 71.5C86.3081 71.5 98.3125 59.4956 98.3125 44.6875 98.3125 29.8794 86.3081 17.875 71.5 17.875 56.6919 17.875 44.6875 29.8794 44.6875 44.6875 44.6875 59.4956 56.6919 71.5 71.5 71.5Z" transform="matrix(1 0 0 1.00699 779 306)"/></g></g></g><g clip-path="url(#clip0)"><g clip-path="url(#clip1)"><g clip-path="url(#clip2)"><path d="M0 56.5C0 56.5 0 28.25 28.25 28.25L197.75 28.25C197.75 28.25 226 28.25 226 56.5L226 141.25C226 141.25 226 169.5 197.75 169.5L141.25 169.5C141.25 178.921 142.422 185.984 144.781 190.688L155.375 190.688C159.276 190.688 162.438 193.849 162.438 197.75 162.438 201.651 159.276 204.812 155.375 204.812L70.625 204.812C66.7245 204.812 63.5625 201.651 63.5625 197.75 63.5625 193.849 66.7245 190.688 70.625 190.688L81.2188 190.688C83.5776 185.984 84.75 178.921 84.75 169.5L28.25 169.5C28.25 169.5 0 169.5 0 141.25L0 56.5ZM19.7467 44.4231C18.1952 45.5033 16.9573 46.9751 16.159 48.6889 14.955 51.1766 14.2633 53.8809 14.125 56.6413L14.125 141.25C14.125 145.841 15.2267 148.341 16.1731 149.753 17.1619 151.236 18.5744 152.409 20.4389 153.341 22.8195 154.494 25.3992 155.18 28.0381 155.361L28.3913 155.375 197.75 155.375C202.341 155.375 204.841 154.273 206.253 153.327 207.805 152.247 209.043 150.775 209.841 149.061 210.994 146.681 211.68 144.101 211.861 141.462L211.875 141.109 211.875 56.5C211.875 51.9094 210.773 49.4092 209.827 47.9967 208.747 46.4447 207.275 45.2068 205.561 44.409 203.073 43.205 200.369 42.5133 197.609 42.375L28.25 42.375C23.6594 42.375 21.1593 43.4767 19.7467 44.4231Z" transform="matrix(1.00442 0 0 1 937 265)"/></g></g></g><path d="M971 345.764C971 342.581 973.581 340 976.764 340L1124.24 340C1127.42 340 1130 342.581 1130 345.764L1130 379.236C1130 382.419 1127.42 385 1124.24 385L976.764 385C973.581 385 971 382.419 971 379.236Z" stroke="#000000" stroke-width="4" stroke-miterlimit="8" fill="none" fill-rule="evenodd"/><g><g><g><path d="M986 362.5C986 356.149 991.149 351 997.5 351 1003.85 351 1009 356.149 1009 362.5 1009 368.851 1003.85 374 997.5 374 991.149 374 986 368.851 986 362.5ZM996.781 352.548C995.818 352.841 994.862 353.727 994.069 355.215 993.863 355.6 993.672 356.02 993.501 356.468 994.514 356.694 995.617 356.838 996.781 356.881L996.781 352.548ZM992.108 356.087C992.312 355.535 992.545 355.018 992.799 354.538 993.048 354.068 993.335 353.619 993.658 353.197 992.434 353.704 991.322 354.447 990.386 355.384 990.906 355.649 991.483 355.886 992.108 356.089ZM991.044 361.781C991.096 360.243 991.314 358.781 991.671 357.457 990.893 357.208 990.14 356.887 989.421 356.498 988.276 358.036 987.597 359.869 987.463 361.781L991.043 361.781ZM993.057 357.841C992.718 359.129 992.525 360.45 992.482 361.781L996.781 361.781 996.781 358.318C995.473 358.275 994.218 358.11 993.057 357.841ZM998.219 358.317 998.219 361.781 1002.52 361.781C1002.47 360.451 1002.28 359.129 1001.94 357.841 1000.78 358.11 999.527 358.274 998.219 358.318ZM992.483 363.219C992.533 364.638 992.736 365.97 993.057 367.159 994.28 366.881 995.527 366.722 996.781 366.683L996.781 363.219 992.483 363.219ZM998.219 363.219 998.219 366.682C999.527 366.725 1000.78 366.89 1001.94 367.159 1002.26 365.97 1002.47 364.638 1002.52 363.219L998.219 363.219ZM993.501 368.532C993.673 368.98 993.863 369.4 994.069 369.785 994.862 371.273 995.82 372.157 996.781 372.452L996.781 368.121C995.617 368.164 994.514 368.307 993.501 368.533ZM993.659 371.803C993.336 371.381 993.048 370.932 992.799 370.462 992.535 369.961 992.304 369.443 992.108 368.911 991.517 369.101 990.941 369.337 990.386 369.616 991.322 370.553 992.434 371.296 993.658 371.803ZM991.671 367.543C991.298 366.13 991.087 364.679 991.043 363.219L987.463 363.219C987.597 365.131 988.276 366.964 989.421 368.502 990.097 368.131 990.852 367.809 991.671 367.543ZM1001.34 371.803C1002.57 371.297 1003.68 370.554 1004.61 369.617 1004.06 369.338 1003.48 369.103 1002.89 368.913 1002.7 369.444 1002.47 369.962 1002.2 370.462 1001.95 370.932 1001.67 371.381 1001.34 371.803ZM998.219 368.119 998.219 372.452C999.182 372.159 1000.14 371.273 1000.93 369.785 1001.14 369.4 1001.33 368.98 1001.5 368.532 1000.42 368.295 999.322 368.158 998.219 368.121ZM1003.33 367.543C1004.15 367.809 1004.9 368.131 1005.58 368.502 1006.72 366.964 1007.4 365.131 1007.54 363.219L1003.96 363.219C1003.91 364.679 1003.7 366.13 1003.33 367.543ZM1007.54 361.781C1007.4 359.869 1006.72 358.036 1005.58 356.498 1004.9 356.869 1004.15 357.191 1003.33 357.457 1003.69 358.78 1003.9 360.243 1003.96 361.781L1007.54 361.781ZM1002.2 354.538C1002.46 355.018 1002.69 355.535 1002.89 356.087 1003.48 355.897 1004.06 355.662 1004.61 355.383 1003.68 354.447 1002.57 353.704 1001.34 353.198 1001.66 353.605 1001.94 354.056 1002.2 354.538ZM1001.5 356.468C1001.34 356.039 1001.15 355.621 1000.93 355.215 1000.14 353.727 999.182 352.843 998.219 352.548L998.219 356.879C999.383 356.836 1000.49 356.693 1001.5 356.467Z"/></g></g></g><text font-family="Arial,Arial_MSFontService,sans-serif" font-weight="700" font-size="32" transform="translate(1015 373)">www.</text></g></svg>