<svg width="425" height="424" xmlns="http://www.w3.org/2000/svg" xmlns:xlink="http://www.w3.org/1999/xlink" overflow="hidden"><g transform="translate(-710 -113)"><g><g><g><path d="M1053.69 213.062C1062.56 213.062 1069.75 220.254 1069.75 229.125L1069.75 421.875C1069.75 430.746 1062.56 437.938 1053.69 437.938L957.312 437.938C948.441 437.938 941.25 430.746 941.25 421.875L941.25 229.125C941.25 220.254 948.441 213.062 957.312 213.062L1053.69 213.062ZM957.312 197C939.57 197 925.188 211.383 925.188 229.125L925.188 421.875C925.188 439.617 939.57 454 957.312 454L1053.69 454C1071.43 454 1085.81 439.617 1085.81 421.875L1085.81 229.125C1085.81 211.383 1071.43 197 1053.69 197L957.312 197Z"/><path d="M1005.5 421.875C1014.37 421.875 1021.56 414.684 1021.56 405.812 1021.56 396.941 1014.37 389.75 1005.5 389.75 996.629 389.75 989.438 396.941 989.438 405.812 989.438 414.684 996.629 421.875 1005.5 421.875Z"/></g></g></g><g><g><g><path d="M26.8125 125.125C26.8125 125.125 17.875 125.125 17.875 116.188 17.875 107.25 26.8125 80.4375 71.5 80.4375 116.188 80.4375 125.125 107.25 125.125 116.188 125.125 125.125 116.188 125.125 116.188 125.125L26.8125 125.125ZM71.5 71.5C86.3081 71.5 98.3125 59.4956 98.3125 44.6875 98.3125 29.8794 86.3081 17.875 71.5 17.875 56.6919 17.875 44.6875 29.8794 44.6875 44.6875 44.6875 59.4956 56.6919 71.5 71.5 71.5Z" transform="matrix(1 0 0 1.00699 741 253)"/></g></g></g><g><g><g><path d="M971.375 268.375 982.75 268.375 982.75 279.75 971.375 279.75 971.375 268.375Z"/><path d="M994.125 257 994.125 291.125 960 291.125 960 257 994.125 257ZM988.438 262.688 965.688 262.688 965.688 285.438 988.438 285.438 988.438 262.688ZM982.75 325.25 971.375 325.25 971.375 336.625 982.75 336.625 982.75 325.25Z"/><path d="M994.125 313.875 994.125 348 960 348 960 313.875 994.125 313.875ZM965.688 319.562 965.688 342.312 988.438 342.312 988.438 319.562 965.688 319.562ZM1028.25 268.375 1039.62 268.375 1039.62 279.75 1028.25 279.75 1028.25 268.375Z"/><path d="M1016.88 257 1016.88 291.125 1051 291.125 1051 257 1016.88 257ZM1045.31 262.688 1045.31 285.438 1022.56 285.438 1022.56 262.688 1045.31 262.688ZM1005.5 262.688 1005.5 257 1011.19 257 1011.19 268.375 1005.5 268.375 1005.5 279.75 999.812 279.75 999.812 262.688 1005.5 262.688ZM1005.5 291.125 1005.5 279.75 1011.19 279.75 1011.19 291.125 1005.5 291.125ZM994.125 302.5 994.125 296.812 999.812 296.812 999.812 291.125 1005.5 291.125 1005.5 302.5 1011.19 302.5 1011.19 296.812 1039.62 296.812 1039.62 302.5 1016.88 302.5 1016.88 308.188 999.812 308.188 999.812 302.5 994.125 302.5ZM994.125 302.5 994.125 308.188 971.375 308.188 971.375 302.5 965.688 302.5 965.688 308.188 960 308.188 960 296.812 977.062 296.812 977.062 302.5 994.125 302.5ZM1051 308.188 1045.31 308.188 1045.31 296.812 1051 296.812 1051 308.188ZM1045.31 308.188 1039.62 308.188 1039.62 319.562 1051 319.562 1051 313.875 1045.31 313.875 1045.31 308.188ZM1022.56 308.188 1033.94 308.188 1033.94 313.875 1028.25 313.875 1028.25 319.562 1022.56 319.562 1022.56 308.188ZM1033.94 325.25 1033.94 319.562 1028.25 319.562 1028.25 325.25 1022.56 325.25 1022.56 330.938 1011.19 330.938 1011.19 336.625 1028.25 336.625 1028.25 325.25 1033.94 325.25ZM1033.94 325.25 1051 325.25 1051 330.938 1039.62 330.938 1039.62 336.625 1033.94 336.625 1033.94 325.25ZM1011.19 319.562 1011.19 325.25 1016.88 325.25 1016.88 313.875 999.812 313.875 999.812 319.562 1011.19 319.562Z"/><path d="M999.812 325.25 1005.5 325.25 1005.5 342.312 1028.25 342.312 1028.25 348 999.812 348 999.812 325.25ZM1051 336.625 1051 348 1033.94 348 1033.94 342.312 1045.31 342.312 1045.31 336.625 1051 336.625Z"/></g></g></g></g></svg>