<svg width="425" height="424" xmlns="http://www.w3.org/2000/svg" xmlns:xlink="http://www.w3.org/1999/xlink" overflow="hidden"><g transform="translate(-1209 -113)"><g><g><g><path d="M1504.5 335.312C1486.38 335.312 1471.69 320.622 1471.69 302.5 1471.69 284.378 1486.38 269.688 1504.5 269.688 1522.62 269.688 1537.31 284.378 1537.31 302.5 1537.31 320.622 1522.62 335.312 1504.5 335.312ZM1504.5 340C1525.21 340 1542 323.211 1542 302.5 1542 281.789 1525.21 265 1504.5 265 1483.79 265 1467 281.789 1467 302.5 1467 323.211 1483.79 340 1504.5 340Z"/><path d="M1518.42 288.297C1518.39 288.329 1518.36 288.364 1518.33 288.4L1502.05 309.142 1492.24 299.327C1490.82 298.003 1488.59 298.081 1487.27 299.502 1486.01 300.852 1486.01 302.945 1487.27 304.295L1499.67 316.703C1501.05 318.075 1503.27 318.073 1504.64 316.699 1504.67 316.669 1504.7 316.64 1504.73 316.609L1523.44 293.219C1524.78 291.813 1524.73 289.588 1523.32 288.248 1521.94 286.936 1519.77 286.957 1518.42 288.297Z"/></g></g></g><g><g><g><path d="M1552.69 213.062C1561.56 213.062 1568.75 220.254 1568.75 229.125L1568.75 421.875C1568.75 430.746 1561.56 437.938 1552.69 437.938L1456.31 437.938C1447.44 437.938 1440.25 430.746 1440.25 421.875L1440.25 229.125C1440.25 220.254 1447.44 213.062 1456.31 213.062L1552.69 213.062ZM1456.31 197C1438.57 197 1424.19 211.383 1424.19 229.125L1424.19 421.875C1424.19 439.617 1438.57 454 1456.31 454L1552.69 454C1570.43 454 1584.81 439.617 1584.81 421.875L1584.81 229.125C1584.81 211.383 1570.43 197 1552.69 197L1456.31 197Z"/><path d="M1504.5 421.875C1513.37 421.875 1520.56 414.684 1520.56 405.812 1520.56 396.941 1513.37 389.75 1504.5 389.75 1495.63 389.75 1488.44 396.941 1488.44 405.812 1488.44 414.684 1495.63 421.875 1504.5 421.875Z"/></g></g></g><g><g><g><path d="M26.8125 125.125C26.8125 125.125 17.875 125.125 17.875 116.188 17.875 107.25 26.8125 80.4375 71.5 80.4375 116.188 80.4375 125.125 107.25 125.125 116.188 125.125 125.125 116.188 125.125 116.188 125.125L26.8125 125.125ZM71.5 71.5C86.3081 71.5 98.3125 59.4956 98.3125 44.6875 98.3125 29.8794 86.3081 17.875 71.5 17.875 56.6919 17.875 44.6875 29.8794 44.6875 44.6875 44.6875 59.4956 56.6919 71.5 71.5 71.5Z" transform="matrix(1 0 0 1.00699 1240 253)"/></g></g></g></g></svg>