<svg width="424" height="424" xmlns="http://www.w3.org/2000/svg" xmlns:xlink="http://www.w3.org/1999/xlink" overflow="hidden"><g transform="translate(-302 -166)"><g><g><g><path d="M374.812 299.125C374.812 299.125 365.875 299.125 365.875 290.188 365.875 281.25 374.812 254.438 419.5 254.438 464.188 254.438 473.125 281.25 473.125 290.188 473.125 299.125 464.188 299.125 464.188 299.125L374.812 299.125ZM419.5 245.5C434.308 245.5 446.312 233.496 446.312 218.688 446.312 203.879 434.308 191.875 419.5 191.875 404.692 191.875 392.688 203.879 392.688 218.688 392.688 233.496 404.692 245.5 419.5 245.5Z"/></g></g></g><g><g><g><path d="M563.812 299.125C563.812 299.125 554.875 299.125 554.875 290.188 554.875 281.25 563.812 254.438 608.5 254.438 653.188 254.438 662.125 281.25 662.125 290.188 662.125 299.125 653.188 299.125 653.188 299.125L563.812 299.125ZM608.5 245.5C623.308 245.5 635.312 233.496 635.312 218.688 635.312 203.879 623.308 191.875 608.5 191.875 593.692 191.875 581.688 203.879 581.688 218.688 581.688 233.496 593.692 245.5 608.5 245.5Z"/></g></g></g><g><g><g><path d="M26.8125 125.125C26.8125 125.125 17.875 125.125 17.875 116.188 17.875 107.25 26.8125 80.4375 71.5 80.4375 116.188 80.4375 125.125 107.25 125.125 116.188 125.125 125.125 116.188 125.125 116.188 125.125L26.8125 125.125ZM71.5 71.5C86.3081 71.5 98.3125 59.4956 98.3125 44.6875 98.3125 29.8794 86.3081 17.875 71.5 17.875 56.6919 17.875 44.6875 29.8794 44.6875 44.6875 44.6875 59.4956 56.6919 71.5 71.5 71.5Z" transform="matrix(1 0 0 1.00699 348 378)"/></g></g></g><g><g><g><path d="M26.8125 125.125C26.8125 125.125 17.875 125.125 17.875 116.188 17.875 107.25 26.8125 80.4375 71.5 80.4375 116.188 80.4375 125.125 107.25 125.125 116.188 125.125 125.125 116.188 125.125 116.188 125.125L26.8125 125.125ZM71.5 71.5C86.3081 71.5 98.3125 59.4956 98.3125 44.6875 98.3125 29.8794 86.3081 17.875 71.5 17.875 56.6919 17.875 44.6875 29.8794 44.6875 44.6875 44.6875 59.4956 56.6919 71.5 71.5 71.5Z" transform="matrix(1 0 0 1.00699 537 378)"/></g></g></g><path d="M340 315.764C340 312.581 342.581 310 345.764 310L493.236 310C496.419 310 499 312.581 499 315.764L499 349.236C499 352.419 496.419 355 493.236 355L345.764 355C342.581 355 340 352.419 340 349.236Z" stroke="#000000" stroke-width="4" stroke-miterlimit="8" fill="none" fill-rule="evenodd"/><path d="M529 315.764C529 312.581 531.581 310 534.764 310L682.236 310C685.419 310 688 312.581 688 315.764L688 349.236C688 352.419 685.419 355 682.236 355L534.764 355C531.581 355 529 352.419 529 349.236Z" stroke="#000000" stroke-width="4" stroke-miterlimit="8" fill="none" fill-rule="evenodd"/><path d="M340 519.764C340 516.581 342.581 514 345.764 514L493.236 514C496.419 514 499 516.581 499 519.764L499 553.236C499 556.419 496.419 559 493.236 559L345.764 559C342.581 559 340 556.419 340 553.236Z" stroke="#000000" stroke-width="4" stroke-miterlimit="8" fill="none" fill-rule="evenodd"/><path d="M529 519.764C529 516.581 531.581 514 534.764 514L682.236 514C685.419 514 688 516.581 688 519.764L688 553.236C688 556.419 685.419 559 682.236 559L534.764 559C531.581 559 529 556.419 529 553.236Z" stroke="#000000" stroke-width="4" stroke-miterlimit="8" fill="none" fill-rule="evenodd"/><g><g><g><path d="M355 332.5C355 326.149 360.149 321 366.5 321 372.851 321 378 326.149 378 332.5 378 338.851 372.851 344 366.5 344 360.149 344 355 338.851 355 332.5ZM365.781 322.548C364.818 322.841 363.862 323.727 363.069 325.215 362.863 325.6 362.672 326.02 362.501 326.468 363.514 326.694 364.617 326.838 365.781 326.881L365.781 322.548ZM361.108 326.087C361.312 325.535 361.545 325.018 361.799 324.538 362.048 324.068 362.335 323.619 362.658 323.197 361.434 323.704 360.322 324.447 359.386 325.384 359.906 325.649 360.483 325.886 361.108 326.089ZM360.044 331.781C360.096 330.243 360.314 328.781 360.671 327.457 359.893 327.208 359.14 326.887 358.421 326.498 357.276 328.036 356.597 329.869 356.463 331.781L360.043 331.781ZM362.057 327.841C361.718 329.129 361.525 330.45 361.482 331.781L365.781 331.781 365.781 328.318C364.473 328.275 363.218 328.11 362.057 327.841ZM367.219 328.317 367.219 331.781 371.517 331.781C371.474 330.451 371.282 329.129 370.943 327.841 369.782 328.11 368.527 328.274 367.219 328.318ZM361.483 333.219C361.533 334.638 361.736 335.97 362.057 337.159 363.28 336.881 364.527 336.722 365.781 336.683L365.781 333.219 361.483 333.219ZM367.219 333.219 367.219 336.682C368.527 336.725 369.782 336.89 370.943 337.159 371.264 335.97 371.467 334.638 371.518 333.219L367.219 333.219ZM362.501 338.532C362.673 338.98 362.863 339.4 363.069 339.785 363.862 341.273 364.82 342.157 365.781 342.452L365.781 338.121C364.617 338.164 363.514 338.307 362.501 338.533ZM362.659 341.803C362.336 341.381 362.048 340.932 361.799 340.462 361.535 339.961 361.304 339.443 361.108 338.911 360.517 339.101 359.941 339.337 359.386 339.616 360.322 340.553 361.434 341.296 362.658 341.803ZM360.671 337.543C360.298 336.13 360.087 334.679 360.043 333.219L356.463 333.219C356.597 335.131 357.276 336.964 358.421 338.502 359.097 338.131 359.852 337.809 360.671 337.543ZM370.342 341.803C371.566 341.297 372.677 340.554 373.613 339.617 373.058 339.338 372.483 339.103 371.892 338.913 371.696 339.444 371.465 339.962 371.201 340.462 370.952 340.932 370.665 341.381 370.342 341.803ZM367.219 338.119 367.219 342.452C368.182 342.159 369.138 341.273 369.931 339.785 370.137 339.4 370.328 338.98 370.499 338.532 369.42 338.295 368.322 338.158 367.219 338.121ZM372.329 337.543C373.148 337.809 373.903 338.131 374.579 338.502 375.724 336.964 376.403 335.131 376.537 333.219L372.957 333.219C372.913 334.679 372.702 336.13 372.329 337.543ZM376.537 331.781C376.403 329.869 375.724 328.036 374.579 326.498 373.903 326.869 373.148 327.191 372.329 327.457 372.686 328.78 372.904 330.243 372.957 331.781L376.537 331.781ZM371.201 324.538C371.455 325.018 371.688 325.535 371.893 326.087 372.484 325.897 373.059 325.662 373.613 325.383 372.677 324.447 371.565 323.704 370.342 323.198 370.656 323.605 370.943 324.056 371.201 324.538ZM370.499 326.468C370.336 326.039 370.146 325.621 369.931 325.215 369.138 323.727 368.182 322.843 367.219 322.548L367.219 326.879C368.383 326.836 369.486 326.693 370.499 326.467Z"/></g></g></g><text font-family="Arial,Arial_MSFontService,sans-serif" font-weight="700" font-size="32" transform="translate(383.765 342)">www</text><text font-family="Arial,Arial_MSFontService,sans-serif" font-weight="700" font-size="32" transform="translate(457.079 342)">.</text><g><g><g><path d="M544 332.5C544 326.149 549.149 321 555.5 321 561.851 321 567 326.149 567 332.5 567 338.851 561.851 344 555.5 344 549.149 344 544 338.851 544 332.5ZM554.781 322.548C553.818 322.841 552.862 323.727 552.069 325.215 551.863 325.6 551.672 326.02 551.501 326.468 552.514 326.694 553.617 326.838 554.781 326.881L554.781 322.548ZM550.108 326.087C550.312 325.535 550.545 325.018 550.799 324.538 551.048 324.068 551.335 323.619 551.658 323.197 550.434 323.704 549.322 324.447 548.386 325.384 548.906 325.649 549.483 325.886 550.108 326.089ZM549.044 331.781C549.096 330.243 549.314 328.781 549.671 327.457 548.893 327.208 548.14 326.887 547.421 326.498 546.276 328.036 545.597 329.869 545.463 331.781L549.043 331.781ZM551.057 327.841C550.718 329.129 550.525 330.45 550.482 331.781L554.781 331.781 554.781 328.318C553.473 328.275 552.218 328.11 551.057 327.841ZM556.219 328.317 556.219 331.781 560.517 331.781C560.474 330.451 560.282 329.129 559.943 327.841 558.782 328.11 557.527 328.274 556.219 328.318ZM550.483 333.219C550.533 334.638 550.736 335.97 551.057 337.159 552.28 336.881 553.527 336.722 554.781 336.683L554.781 333.219 550.483 333.219ZM556.219 333.219 556.219 336.682C557.527 336.725 558.782 336.89 559.943 337.159 560.264 335.97 560.467 334.638 560.518 333.219L556.219 333.219ZM551.501 338.532C551.673 338.98 551.863 339.4 552.069 339.785 552.862 341.273 553.82 342.157 554.781 342.452L554.781 338.121C553.617 338.164 552.514 338.307 551.501 338.533ZM551.659 341.803C551.336 341.381 551.048 340.932 550.799 340.462 550.535 339.961 550.304 339.443 550.108 338.911 549.517 339.101 548.941 339.337 548.386 339.616 549.322 340.553 550.434 341.296 551.658 341.803ZM549.671 337.543C549.298 336.13 549.087 334.679 549.043 333.219L545.463 333.219C545.597 335.131 546.276 336.964 547.421 338.502 548.097 338.131 548.852 337.809 549.671 337.543ZM559.342 341.803C560.566 341.297 561.677 340.554 562.613 339.617 562.058 339.338 561.483 339.103 560.892 338.913 560.696 339.444 560.465 339.962 560.201 340.462 559.952 340.932 559.665 341.381 559.342 341.803ZM556.219 338.119 556.219 342.452C557.182 342.159 558.138 341.273 558.931 339.785 559.137 339.4 559.328 338.98 559.499 338.532 558.42 338.295 557.322 338.158 556.219 338.121ZM561.329 337.543C562.148 337.809 562.903 338.131 563.579 338.502 564.724 336.964 565.403 335.131 565.537 333.219L561.957 333.219C561.913 334.679 561.702 336.13 561.329 337.543ZM565.537 331.781C565.403 329.869 564.724 328.036 563.579 326.498 562.903 326.869 562.148 327.191 561.329 327.457 561.686 328.78 561.904 330.243 561.957 331.781L565.537 331.781ZM560.201 324.538C560.455 325.018 560.688 325.535 560.893 326.087 561.484 325.897 562.059 325.662 562.613 325.383 561.677 324.447 560.565 323.704 559.342 323.198 559.656 323.605 559.943 324.056 560.201 324.538ZM559.499 326.468C559.336 326.039 559.146 325.621 558.931 325.215 558.138 323.727 557.182 322.843 556.219 322.548L556.219 326.879C557.383 326.836 558.486 326.693 559.499 326.467Z"/></g></g></g><text font-family="Arial,Arial_MSFontService,sans-serif" font-weight="700" font-size="32" transform="translate(572.76 342)">www.</text><g><g><g><path d="M355 536.5C355 530.149 360.149 525 366.5 525 372.851 525 378 530.149 378 536.5 378 542.851 372.851 548 366.5 548 360.149 548 355 542.851 355 536.5ZM365.781 526.548C364.818 526.841 363.862 527.727 363.069 529.215 362.863 529.6 362.672 530.02 362.501 530.468 363.514 530.694 364.617 530.838 365.781 530.881L365.781 526.548ZM361.108 530.087C361.312 529.535 361.545 529.018 361.799 528.538 362.048 528.068 362.335 527.619 362.658 527.196 361.434 527.704 360.322 528.447 359.386 529.384 359.906 529.649 360.483 529.886 361.108 530.089ZM360.044 535.781C360.096 534.243 360.314 532.781 360.671 531.457 359.893 531.208 359.14 530.887 358.421 530.498 357.276 532.036 356.597 533.869 356.463 535.781L360.043 535.781ZM362.057 531.841C361.718 533.129 361.525 534.45 361.482 535.781L365.781 535.781 365.781 532.318C364.473 532.275 363.218 532.11 362.057 531.841ZM367.219 532.317 367.219 535.781 371.517 535.781C371.474 534.451 371.282 533.129 370.943 531.841 369.782 532.11 368.527 532.274 367.219 532.318ZM361.483 537.219C361.533 538.638 361.736 539.97 362.057 541.159 363.28 540.881 364.527 540.722 365.781 540.683L365.781 537.219 361.483 537.219ZM367.219 537.219 367.219 540.682C368.527 540.725 369.782 540.89 370.943 541.159 371.264 539.97 371.467 538.638 371.518 537.219L367.219 537.219ZM362.501 542.532C362.673 542.98 362.863 543.4 363.069 543.785 363.862 545.273 364.82 546.157 365.781 546.452L365.781 542.121C364.617 542.164 363.514 542.307 362.501 542.533ZM362.659 545.804C362.336 545.381 362.048 544.932 361.799 544.462 361.535 543.961 361.304 543.443 361.108 542.911 360.517 543.101 359.941 543.337 359.386 543.616 360.322 544.553 361.434 545.296 362.658 545.804ZM360.671 541.543C360.298 540.13 360.087 538.679 360.043 537.219L356.463 537.219C356.597 539.131 357.276 540.964 358.421 542.502 359.097 542.131 359.852 541.809 360.671 541.543ZM370.342 545.804C371.566 545.297 372.677 544.554 373.613 543.617 373.058 543.338 372.483 543.103 371.892 542.913 371.696 543.444 371.465 543.962 371.201 544.462 370.952 544.932 370.665 545.381 370.342 545.804ZM367.219 542.119 367.219 546.452C368.182 546.159 369.138 545.273 369.931 543.785 370.137 543.4 370.328 542.98 370.499 542.532 369.42 542.295 368.322 542.158 367.219 542.121ZM372.329 541.543C373.148 541.809 373.903 542.131 374.579 542.502 375.724 540.964 376.403 539.131 376.537 537.219L372.957 537.219C372.913 538.679 372.702 540.13 372.329 541.543ZM376.537 535.781C376.403 533.869 375.724 532.036 374.579 530.498 373.903 530.869 373.148 531.191 372.329 531.457 372.686 532.78 372.904 534.243 372.957 535.781L376.537 535.781ZM371.201 528.538C371.455 529.018 371.688 529.535 371.893 530.087 372.484 529.897 373.059 529.662 373.613 529.383 372.677 528.447 371.565 527.704 370.342 527.198 370.656 527.605 370.943 528.056 371.201 528.538ZM370.499 530.468C370.336 530.039 370.146 529.62 369.931 529.215 369.138 527.727 368.182 526.843 367.219 526.548L367.219 530.879C368.383 530.836 369.486 530.693 370.499 530.467Z"/></g></g></g><text font-family="Arial,Arial_MSFontService,sans-serif" font-weight="700" font-size="32" transform="translate(383.765 547)">www.</text><g><g><g><path d="M544 536.5C544 530.149 549.149 525 555.5 525 561.851 525 567 530.149 567 536.5 567 542.851 561.851 548 555.5 548 549.149 548 544 542.851 544 536.5ZM554.781 526.548C553.818 526.841 552.862 527.727 552.069 529.215 551.863 529.6 551.672 530.02 551.501 530.468 552.514 530.694 553.617 530.838 554.781 530.881L554.781 526.548ZM550.108 530.087C550.312 529.535 550.545 529.018 550.799 528.538 551.048 528.068 551.335 527.619 551.658 527.196 550.434 527.704 549.322 528.447 548.386 529.384 548.906 529.649 549.483 529.886 550.108 530.089ZM549.044 535.781C549.096 534.243 549.314 532.781 549.671 531.457 548.893 531.208 548.14 530.887 547.421 530.498 546.276 532.036 545.597 533.869 545.463 535.781L549.043 535.781ZM551.057 531.841C550.718 533.129 550.525 534.45 550.482 535.781L554.781 535.781 554.781 532.318C553.473 532.275 552.218 532.11 551.057 531.841ZM556.219 532.317 556.219 535.781 560.517 535.781C560.474 534.451 560.282 533.129 559.943 531.841 558.782 532.11 557.527 532.274 556.219 532.318ZM550.483 537.219C550.533 538.638 550.736 539.97 551.057 541.159 552.28 540.881 553.527 540.722 554.781 540.683L554.781 537.219 550.483 537.219ZM556.219 537.219 556.219 540.682C557.527 540.725 558.782 540.89 559.943 541.159 560.264 539.97 560.467 538.638 560.518 537.219L556.219 537.219ZM551.501 542.532C551.673 542.98 551.863 543.4 552.069 543.785 552.862 545.273 553.82 546.157 554.781 546.452L554.781 542.121C553.617 542.164 552.514 542.307 551.501 542.533ZM551.659 545.804C551.336 545.381 551.048 544.932 550.799 544.462 550.535 543.961 550.304 543.443 550.108 542.911 549.517 543.101 548.941 543.337 548.386 543.616 549.322 544.553 550.434 545.296 551.658 545.804ZM549.671 541.543C549.298 540.13 549.087 538.679 549.043 537.219L545.463 537.219C545.597 539.131 546.276 540.964 547.421 542.502 548.097 542.131 548.852 541.809 549.671 541.543ZM559.342 545.804C560.566 545.297 561.677 544.554 562.613 543.617 562.058 543.338 561.483 543.103 560.892 542.913 560.696 543.444 560.465 543.962 560.201 544.462 559.952 544.932 559.665 545.381 559.342 545.804ZM556.219 542.119 556.219 546.452C557.182 546.159 558.138 545.273 558.931 543.785 559.137 543.4 559.328 542.98 559.499 542.532 558.42 542.295 557.322 542.158 556.219 542.121ZM561.329 541.543C562.148 541.809 562.903 542.131 563.579 542.502 564.724 540.964 565.403 539.131 565.537 537.219L561.957 537.219C561.913 538.679 561.702 540.13 561.329 541.543ZM565.537 535.781C565.403 533.869 564.724 532.036 563.579 530.498 562.903 530.869 562.148 531.191 561.329 531.457 561.686 532.78 561.904 534.243 561.957 535.781L565.537 535.781ZM560.201 528.538C560.455 529.018 560.688 529.535 560.893 530.087 561.484 529.897 562.059 529.662 562.613 529.383 561.677 528.447 560.565 527.704 559.342 527.198 559.656 527.605 559.943 528.056 560.201 528.538ZM559.499 530.468C559.336 530.039 559.146 529.62 558.931 529.215 558.138 527.727 557.182 526.843 556.219 526.548L556.219 530.879C557.383 530.836 558.486 530.693 559.499 530.467Z"/></g></g></g><text font-family="Arial,Arial_MSFontService,sans-serif" font-weight="700" font-size="32" transform="translate(572.76 547)">www.</text></g></svg>