<svg width="425" height="425" xmlns="http://www.w3.org/2000/svg" xmlns:xlink="http://www.w3.org/1999/xlink" overflow="hidden"><defs><clipPath id="clip0"><rect x="1897" y="280" width="76" height="75"/></clipPath><clipPath id="clip1"><rect x="1897" y="280" width="76" height="75"/></clipPath><clipPath id="clip2"><rect x="1897" y="280" width="76" height="75"/></clipPath></defs><g transform="translate(-1655 -120)"><g><g><g><path d="M26.8125 125.125C26.8125 125.125 17.875 125.125 17.875 116.188 17.875 107.25 26.8125 80.4375 71.5 80.4375 116.188 80.4375 125.125 107.25 125.125 116.188 125.125 125.125 116.188 125.125 116.188 125.125L26.8125 125.125ZM71.5 71.5C86.3081 71.5 98.3125 59.4956 98.3125 44.6875 98.3125 29.8794 86.3081 17.875 71.5 17.875 56.6919 17.875 44.6875 29.8794 44.6875 44.6875 44.6875 59.4956 56.6919 71.5 71.5 71.5Z" transform="matrix(1.00699 0 0 1 1663 261)"/></g></g></g><g><g><g><path d="M1822 275.75C1822 275.75 1822 247.375 1850.38 247.375L2020.62 247.375C2020.62 247.375 2049 247.375 2049 275.75L2049 360.875C2049 360.875 2049 389.25 2020.62 389.25L1963.88 389.25C1963.88 398.713 1965.05 405.807 1967.42 410.531L1978.06 410.531C1981.98 410.531 1985.16 413.707 1985.16 417.625 1985.16 421.543 1981.98 424.719 1978.06 424.719L1892.94 424.719C1889.02 424.719 1885.84 421.543 1885.84 417.625 1885.84 413.707 1889.02 410.531 1892.94 410.531L1903.58 410.531C1905.95 405.807 1907.12 398.713 1907.12 389.25L1850.38 389.25C1850.38 389.25 1822 389.25 1822 360.875L1822 275.75ZM1841.83 263.62C1840.28 264.705 1839.03 266.183 1838.23 267.904 1837.02 270.403 1836.33 273.119 1836.19 275.892L1836.19 360.875C1836.19 365.486 1837.29 367.997 1838.24 369.416 1839.24 370.906 1840.66 372.083 1842.53 373.02 1844.92 374.178 1847.51 374.866 1850.16 375.048L1850.52 375.062 2020.62 375.062C2025.24 375.062 2027.75 373.956 2029.17 373.005 2030.72 371.92 2031.97 370.442 2032.77 368.721 2033.93 366.33 2034.62 363.738 2034.8 361.088L2034.81 360.733 2034.81 275.75C2034.81 271.139 2033.71 268.628 2032.76 267.209 2031.67 265.65 2030.19 264.407 2028.47 263.605 2025.97 262.396 2023.26 261.701 2020.48 261.562L1850.38 261.562C1845.76 261.562 1843.25 262.669 1841.83 263.62Z"/></g></g></g><g clip-path="url(#clip0)"><g clip-path="url(#clip1)"><g clip-path="url(#clip2)"><path d="M37.5 70.3125C19.3782 70.3125 4.6875 55.6218 4.6875 37.5 4.6875 19.3782 19.3782 4.6875 37.5 4.6875 55.6218 4.6875 70.3125 19.3782 70.3125 37.5 70.3125 55.6218 55.6218 70.3125 37.5 70.3125ZM37.5 75C58.2107 75 75 58.2107 75 37.5 75 16.7893 58.2107-8.32667e-15 37.5-8.32667e-15 16.7893-8.32667e-15-8.32667e-15 16.7893 0 37.5 0 58.2107 16.7893 75 37.5 75Z" transform="matrix(1.01333 0 0 1 1897 280)"/><path d="M51.4219 23.2969C51.3885 23.3292 51.3572 23.3637 51.3281 23.4L35.0484 44.1422 25.2375 34.3266C23.817 33.0029 21.5924 33.0814 20.2687 34.502 19.0107 35.8521 19.0107 37.9452 20.2687 39.2953L32.6719 51.7031C34.0461 53.0748 36.272 53.0728 37.6437 51.6986 37.6729 51.6694 37.7016 51.6396 37.7297 51.6094L56.4422 28.2188C57.7815 26.813 57.7277 24.5877 56.322 23.2484 54.9445 21.936 52.773 21.9575 51.4219 23.2969Z" transform="matrix(1.01333 0 0 1 1897 280)"/></g></g></g></g></svg>